<?xml version="1.0" encoding="UTF-8" standalone="no"?>
<!DOCTYPE svg PUBLIC "-//W3C//DTD SVG 1.1//EN" "http://www.w3.org/Graphics/SVG/1.1/DTD/svg11.dtd">
<svg version="1.1" xmlns="http://www.w3.org/2000/svg" xmlns:xlink="http://www.w3.org/1999/xlink" preserveAspectRatio="xMidYMid meet" viewBox="29.962619963590654 19.019043520487763 594.7279711646231 603.9619129590243" width="346" height="351.41"><defs><path d="M496.49 20.26L498.73 20.51L500.94 20.85L503.14 21.28L505.31 21.79L507.45 22.38L509.56 23.05L511.65 23.8L513.7 24.63L515.71 25.54L517.69 26.52L519.63 27.58L521.53 28.71L523.38 29.91L525.18 31.18L526.94 32.52L528.64 33.93L530.29 35.4L531.89 36.94L533.43 38.54L534.91 40.2L536.32 41.92L537.68 43.7L538.96 45.53L540.18 47.43L541.32 49.38L542.39 51.38L543.39 53.43L544.31 55.53L545.14 57.68L545.9 59.88L546.57 62.13L547.15 64.42L620.19 377.71L620.68 380.02L621.07 382.33L621.37 384.64L621.57 386.94L621.68 389.23L621.69 391.51L621.61 393.78L621.45 396.03L621.2 398.27L620.86 400.49L620.43 402.68L619.92 404.85L619.33 406.99L618.66 409.11L617.91 411.19L617.08 413.24L616.17 415.26L615.19 417.24L614.13 419.17L613 421.07L611.8 422.92L610.53 424.73L609.19 426.48L607.78 428.19L606.31 429.84L604.77 431.44L603.17 432.97L601.51 434.45L599.79 435.87L598.01 437.22L596.17 438.51L594.28 439.72L592.33 440.87L590.33 441.94L588.28 442.93L586.18 443.85L584.03 444.69L581.83 445.44L579.58 446.11L577.29 446.7L409.46 485.82L414.67 508.2L493 489.94L495.31 489.45L497.62 489.06L499.93 488.76L502.23 488.56L504.52 488.46L506.8 488.44L509.07 488.52L511.32 488.68L513.56 488.94L515.77 489.28L517.97 489.7L520.14 490.21L522.28 490.8L524.39 491.47L526.48 492.23L528.53 493.06L530.54 493.96L532.52 494.95L534.46 496L536.36 497.13L538.21 498.33L540.01 499.6L541.77 500.94L543.47 502.35L545.13 503.82L546.72 505.36L548.26 506.96L549.74 508.62L551.15 510.34L552.51 512.12L553.79 513.96L555.01 515.85L556.15 517.8L557.22 519.8L558.22 521.85L559.14 523.95L559.97 526.11L560.73 528.31L561.4 530.55L561.98 532.84L562.08 533.31L562.16 533.77L562.22 534.23L562.26 534.69L562.28 535.15L562.28 535.61L562.27 536.06L562.24 536.51L562.18 536.96L562.12 537.4L562.03 537.84L561.93 538.27L561.81 538.7L561.68 539.13L561.53 539.54L561.36 539.95L561.18 540.36L560.98 540.75L560.77 541.14L560.55 541.52L560.31 541.89L560.05 542.25L559.79 542.6L559.5 542.94L559.21 543.27L558.9 543.59L558.58 543.9L558.25 544.19L557.91 544.48L557.55 544.75L557.18 545L556.8 545.25L556.41 545.47L556.01 545.69L555.6 545.89L555.18 546.07L554.75 546.24L554.31 546.39L553.86 546.52L553.4 546.64L240.11 619.68L239.65 619.78L239.19 619.86L238.72 619.92L238.26 619.96L237.81 619.98L237.35 619.98L236.89 619.97L236.44 619.93L236 619.88L235.55 619.81L235.11 619.73L234.68 619.63L234.25 619.51L233.83 619.38L233.41 619.23L233 619.06L232.6 618.88L232.2 618.68L231.82 618.47L231.44 618.25L231.07 618.01L230.71 617.75L230.36 617.48L230.01 617.2L229.68 616.91L229.37 616.6L229.06 616.28L228.76 615.95L228.48 615.6L228.21 615.25L227.95 614.88L227.71 614.5L227.48 614.11L227.27 613.71L227.07 613.3L226.88 612.88L226.72 612.45L226.57 612.01L226.43 611.56L226.31 611.1L225.82 608.79L225.43 606.48L225.14 604.17L224.94 601.87L224.83 599.58L224.81 597.3L224.89 595.03L225.06 592.77L225.31 590.54L225.65 588.32L226.07 586.13L226.58 583.96L227.17 581.81L227.85 579.7L228.6 577.62L229.43 575.57L230.34 573.55L231.32 571.57L232.38 569.63L233.51 567.74L234.71 565.89L235.98 564.08L237.32 562.33L238.72 560.62L240.2 558.97L241.73 557.37L243.33 555.83L244.99 554.36L246.71 552.94L248.49 551.59L250.33 550.3L252.22 549.09L254.17 547.94L256.17 546.87L258.22 545.88L260.33 544.96L262.48 544.12L264.68 543.37L266.93 542.7L269.22 542.11L347.54 523.85L342.32 501.48L174.49 540.6L172.18 541.09L169.86 541.49L167.56 541.78L165.26 541.98L162.97 542.09L160.68 542.1L158.42 542.03L156.16 541.86L153.93 541.61L151.71 541.27L149.52 540.84L147.35 540.33L145.2 539.74L143.09 539.07L141.01 538.32L138.95 537.49L136.94 536.58L134.96 535.6L133.02 534.54L131.13 533.41L129.28 532.21L127.47 530.94L125.71 529.6L124.01 528.19L122.36 526.72L120.76 525.19L119.22 523.59L117.75 521.93L116.33 520.2L114.98 518.43L113.69 516.59L112.48 514.69L111.33 512.75L110.26 510.75L109.27 508.69L108.35 506.59L107.51 504.44L106.76 502.24L106.09 499.99L105.5 497.7L32.46 184.41L31.97 182.1L31.58 179.79L31.29 177.48L31.08 175.18L30.98 172.89L30.96 170.61L31.04 168.34L31.2 166.09L31.46 163.85L31.8 161.64L32.22 159.44L32.73 157.27L33.32 155.13L34 153.01L34.75 150.93L35.58 148.88L36.49 146.86L37.47 144.89L38.52 142.95L39.65 141.05L40.86 139.2L42.13 137.4L43.47 135.64L44.87 133.93L46.34 132.28L47.88 130.69L49.48 129.15L51.14 127.67L52.86 126.25L54.64 124.9L56.48 123.62L58.37 122.4L60.32 121.26L62.32 120.19L64.37 119.19L66.48 118.27L68.63 117.44L70.83 116.68L73.07 116.01L75.36 115.43L478.16 21.52L480.48 21.03L482.79 20.64L485.09 20.34L487.39 20.14L489.69 20.03L491.97 20.02L494.24 20.09L496.49 20.26ZM273.33 564.77L272.26 565.07L271.21 565.41L270.17 565.77L269.16 566.17L268.16 566.6L267.18 567.06L266.22 567.54L265.28 568.05L264.36 568.59L263.46 569.16L262.58 569.76L261.72 570.37L260.88 571.02L260.07 571.68L259.28 572.37L258.51 573.09L257.76 573.82L257.03 574.58L256.33 575.36L255.66 576.16L255.01 576.97L254.38 577.81L253.78 578.66L253.21 579.53L252.66 580.42L252.14 581.33L251.64 582.25L251.18 583.18L250.74 584.13L250.33 585.09L249.95 586.07L249.6 587.05L249.27 588.05L248.98 589.06L248.72 590.08L248.49 591.11L248.29 592.15L248.12 593.2L247.99 594.25L535.07 527.32L534.67 526.73L534.25 526.15L533.8 525.58L533.32 525.02L532.82 524.47L532.29 523.94L531.73 523.41L531.14 522.9L530.53 522.4L529.89 521.9L529.22 521.42L528.53 520.95L527.81 520.5L527.06 520.05L526.29 519.61L525.49 519.19L524.66 518.77L523.81 518.37L522.93 517.98L522.02 517.6L521.08 517.23L520.12 516.87L519.13 516.53L518.11 516.19L517.07 515.86L516 515.55L514.9 515.25L513.78 514.96L512.63 514.68L511.45 514.41L510.24 514.15L509.01 513.9L507.75 513.67L506.47 513.44L505.16 513.23L503.82 513.02L502.45 512.83L501.06 512.65L499.64 512.48L498.19 512.33L274.41 564.5L273.33 564.77ZM127.88 492.48L128.23 493.86L128.63 495.21L129.08 496.53L129.59 497.82L130.14 499.08L130.73 500.31L131.38 501.51L132.06 502.68L132.79 503.82L133.56 504.92L134.38 505.99L135.22 507.02L136.11 508.02L137.03 508.98L137.99 509.9L138.98 510.78L140.01 511.63L141.06 512.43L142.14 513.19L143.25 513.91L144.39 514.59L145.55 515.23L146.74 515.81L147.95 516.36L149.18 516.86L150.43 517.31L151.7 517.71L152.98 518.07L154.29 518.37L155.6 518.63L156.93 518.83L158.27 518.98L159.63 519.08L160.99 519.13L162.36 519.12L163.73 519.05L165.11 518.93L166.5 518.76L167.88 518.52L169.27 518.23L572.07 424.32L572.99 424.08L573.89 423.81L574.78 423.49L575.66 423.13L576.52 422.73L577.37 422.29L578.2 421.81L579.02 421.28L579.83 420.72L580.62 420.11L581.4 419.47L582.16 418.78L582.91 418.05L583.64 417.29L584.37 416.48L585.07 415.63L585.77 414.73L586.44 413.8L587.11 412.83L587.76 411.81L588.4 410.76L589.02 409.66L589.63 408.52L590.22 407.35L590.8 406.13L591.37 404.87L591.92 403.57L592.46 402.22L592.98 400.84L593.49 399.42L593.99 397.95L594.47 396.45L594.93 394.9L595.39 393.31L595.83 391.68L596.25 390.01L596.66 388.3L597.06 386.55L597.44 384.76L597.81 382.93L595.2 371.74L125.27 481.3L127.88 492.48ZM369.92 518.64L392.29 513.42L387.08 491.04L364.7 496.26L369.92 518.64ZM488.92 43.07L487.54 43.19L486.16 43.37L484.77 43.6L483.38 43.9L80.58 137.8L79.21 138.15L77.86 138.56L76.54 139.01L75.25 139.51L73.98 140.06L72.75 140.66L71.55 141.3L70.38 141.99L69.25 142.72L68.15 143.49L67.08 144.3L66.04 145.15L65.05 146.04L64.09 146.96L63.17 147.92L62.28 148.91L61.44 149.93L60.64 150.98L59.87 152.07L59.15 153.18L58.48 154.32L57.84 155.48L57.25 156.66L56.71 157.87L56.21 159.1L55.76 160.35L55.35 161.62L55 162.91L54.69 164.21L54.44 165.53L54.24 166.86L54.08 168.2L53.98 169.55L53.94 170.91L53.95 172.28L54.01 173.66L54.13 175.04L54.31 176.42L54.55 177.81L54.84 179.2L120.05 458.92L589.99 349.36L524.77 69.64L524.42 68.26L524.02 66.92L523.57 65.6L523.07 64.3L522.51 63.04L521.92 61.81L521.27 60.61L520.59 59.44L519.86 58.3L519.09 57.2L518.28 56.13L517.43 55.1L516.54 54.1L515.62 53.14L514.66 52.22L513.67 51.34L512.65 50.5L511.59 49.69L510.51 48.93L509.4 48.21L508.26 47.53L507.1 46.9L505.91 46.31L504.7 45.76L503.47 45.27L502.22 44.81L500.95 44.41L499.67 44.06L498.37 43.75L497.05 43.5L495.72 43.29L494.38 43.14L493.03 43.04L491.66 43L490.3 43.01L488.92 43.07Z" id="b6mM0osff5"></path><path d="M307.66 135.5C305.94 138.26 292.21 160.33 290.5 163.09C287.15 168.47 288.8 175.57 294.18 178.91C299.56 182.26 306.66 180.61 310.01 175.23C310.17 174.96 311.01 173.61 312.51 171.2C318.12 195.27 321.24 208.64 321.87 211.32C323.31 217.5 329.49 221.34 335.66 219.9C341.84 218.46 345.68 212.28 344.27 206.1C342.7 199.38 330.18 145.68 328.61 138.96C327.56 134.44 323.87 130.98 319.29 130.24C314.69 129.45 310.11 131.55 307.66 135.5Z" id="a35nW7GZV"></path><path d="M374.79 119.85C373.07 122.61 359.34 144.68 357.63 147.44C354.28 152.82 355.94 159.92 361.32 163.26C366.7 166.61 373.79 164.96 377.14 159.57C377.31 159.31 378.14 157.96 379.64 155.54C385.26 179.62 388.37 192.99 389 195.67C390.44 201.84 396.62 205.69 402.8 204.25C408.97 202.81 412.82 196.63 411.38 190.45C409.81 183.74 397.29 130.03 395.73 123.32C394.67 118.8 390.99 115.34 386.42 114.59C381.8 113.8 377.24 115.9 374.79 119.85Z" id="h6OvQX5LRm"></path><path d="M251.33 145.79L251.78 145.84L252.22 145.9L252.66 145.99L253.09 146.09L253.52 146.21L253.94 146.34L254.36 146.49L254.77 146.66L255.17 146.84L255.57 147.04L255.96 147.25L256.34 147.47L256.71 147.71L257.07 147.97L257.42 148.24L257.76 148.52L258.09 148.81L258.41 149.12L258.71 149.44L259.01 149.77L259.29 150.12L259.56 150.47L259.82 150.84L260.06 151.22L260.29 151.61L260.51 152.01L260.71 152.42L260.89 152.84L261.06 153.27L261.21 153.71L261.34 154.16L261.46 154.62L277.11 221.75L277.21 222.22L277.29 222.68L277.35 223.14L277.39 223.6L277.41 224.06L277.41 224.52L277.4 224.97L277.36 225.42L277.31 225.87L277.24 226.31L277.16 226.75L277.06 227.19L276.94 227.61L276.81 228.04L276.66 228.45L276.49 228.86L276.31 229.27L276.11 229.66L275.9 230.05L275.68 230.43L275.44 230.8L275.18 231.16L274.91 231.51L274.63 231.85L274.34 232.18L274.03 232.5L273.71 232.81L273.38 233.1L273.03 233.39L272.68 233.66L272.31 233.91L271.93 234.16L271.54 234.39L271.14 234.6L270.73 234.8L270.31 234.98L269.88 235.15L269.44 235.3L268.99 235.43L268.53 235.55L223.77 245.99L223.31 246.08L222.85 246.16L222.39 246.22L221.92 246.26L221.47 246.28L221.01 246.29L220.56 246.27L220.1 246.24L219.66 246.19L219.21 246.12L218.78 246.04L218.34 245.93L217.91 245.82L217.49 245.68L217.07 245.53L216.66 245.37L216.26 245.19L215.86 244.99L215.48 244.78L215.1 244.55L214.73 244.31L214.37 244.06L214.02 243.79L213.68 243.51L213.35 243.21L213.03 242.91L212.72 242.59L212.42 242.25L212.14 241.91L211.87 241.55L211.61 241.19L211.37 240.81L211.14 240.42L210.93 240.02L210.73 239.61L210.54 239.19L210.38 238.75L210.23 238.31L210.09 237.86L209.98 237.41L194.32 170.27L194.23 169.81L194.15 169.35L194.09 168.88L194.05 168.42L194.03 167.97L194.02 167.51L194.04 167.05L194.07 166.6L194.12 166.16L194.19 165.71L194.27 165.27L194.38 164.84L194.49 164.41L194.63 163.99L194.78 163.57L194.94 163.16L195.12 162.76L195.32 162.36L195.53 161.98L195.76 161.6L196 161.23L196.25 160.87L196.52 160.52L196.8 160.17L197.1 159.84L197.4 159.53L197.72 159.22L198.06 158.92L198.4 158.64L198.76 158.37L199.12 158.11L199.5 157.87L199.89 157.64L200.29 157.43L200.7 157.23L201.12 157.04L201.56 156.88L202 156.73L202.45 156.59L202.9 156.47L247.66 146.04L248.12 145.94L248.59 145.86L249.05 145.8L249.51 145.76L249.97 145.74L250.42 145.74L250.88 145.75L251.33 145.79ZM229.75 221L252.12 215.78L241.69 171.03L219.31 176.24L229.75 221Z" id="acI9ws15a"></path><path d="M161.82 166.66L162.26 166.71L162.71 166.77L163.15 166.86L163.58 166.96L164.01 167.08L164.43 167.21L164.85 167.36L165.26 167.53L165.66 167.71L166.06 167.91L166.44 168.12L166.82 168.34L167.19 168.58L167.55 168.84L167.91 169.1L168.25 169.39L168.58 169.68L168.9 169.99L169.2 170.31L169.5 170.64L169.78 170.98L170.05 171.34L170.31 171.71L170.55 172.09L170.78 172.48L171 172.88L171.19 173.29L171.38 173.71L171.55 174.14L171.7 174.58L171.83 175.03L171.95 175.49L187.6 242.62L187.7 243.09L187.78 243.55L187.83 244.01L187.88 244.47L187.9 244.93L187.9 245.39L187.89 245.84L187.85 246.29L187.8 246.74L187.73 247.18L187.65 247.62L187.55 248.05L187.43 248.48L187.3 248.91L187.15 249.32L186.98 249.73L186.8 250.14L186.6 250.53L186.39 250.92L186.16 251.3L185.92 251.67L185.67 252.03L185.4 252.38L185.12 252.72L184.83 253.05L184.52 253.37L184.2 253.68L183.87 253.97L183.52 254.25L183.17 254.53L182.8 254.78L182.42 255.02L182.03 255.25L181.63 255.47L181.22 255.67L180.8 255.85L180.37 256.02L179.93 256.17L179.48 256.3L179.02 256.42L134.26 266.85L133.8 266.95L133.34 267.03L132.87 267.09L132.41 267.13L131.96 267.15L131.5 267.16L131.04 267.14L130.59 267.11L130.15 267.06L129.7 266.99L129.26 266.9L128.83 266.8L128.4 266.68L127.98 266.55L127.56 266.4L127.15 266.23L126.75 266.05L126.35 265.86L125.97 265.65L125.59 265.42L125.22 265.18L124.86 264.93L124.51 264.66L124.16 264.38L123.83 264.08L123.52 263.78L123.21 263.46L122.91 263.12L122.63 262.78L122.36 262.42L122.1 262.05L121.86 261.68L121.63 261.29L121.42 260.89L121.22 260.47L121.03 260.05L120.87 259.62L120.72 259.18L120.58 258.73L120.46 258.27L104.81 191.14L104.72 190.68L104.64 190.21L104.58 189.75L104.54 189.29L104.52 188.83L104.51 188.38L104.53 187.92L104.56 187.47L104.61 187.02L104.68 186.58L104.76 186.14L104.86 185.71L104.98 185.28L105.12 184.86L105.27 184.44L105.43 184.03L105.61 183.63L105.81 183.23L106.02 182.84L106.25 182.47L106.49 182.1L106.74 181.73L107.01 181.38L107.29 181.04L107.59 180.71L107.89 180.39L108.21 180.09L108.54 179.79L108.89 179.51L109.25 179.24L109.61 178.98L109.99 178.74L110.38 178.51L110.78 178.29L111.19 178.1L111.61 177.91L112.04 177.74L112.49 177.59L112.94 177.46L113.39 177.34L158.15 166.91L158.61 166.81L159.07 166.73L159.54 166.67L160 166.63L160.46 166.61L160.91 166.61L161.37 166.62L161.82 166.66ZM140.23 241.87L162.61 236.65L152.18 191.89L129.8 197.11L140.23 241.87Z" id="ccKPSpqkJ"></path><path d="M475.11 93.62L475.55 93.67L476 93.73L476.44 93.82L476.87 93.92L477.3 94.04L477.72 94.17L478.14 94.32L478.55 94.49L478.95 94.67L479.35 94.87L479.73 95.08L480.11 95.3L480.48 95.54L480.84 95.8L481.19 96.07L481.54 96.35L481.87 96.64L482.18 96.95L482.49 97.27L482.79 97.6L483.07 97.95L483.34 98.3L483.6 98.67L483.84 99.05L484.07 99.44L484.28 99.84L484.48 100.25L484.67 100.67L484.83 101.1L484.98 101.54L485.12 101.99L485.24 102.45L500.89 169.58L500.98 170.05L501.06 170.51L501.12 170.97L501.16 171.43L501.18 171.89L501.19 172.35L501.17 172.8L501.14 173.25L501.09 173.7L501.02 174.14L500.94 174.58L500.84 175.02L500.72 175.44L500.58 175.87L500.43 176.28L500.27 176.69L500.09 177.1L499.89 177.49L499.68 177.88L499.45 178.26L499.21 178.63L498.96 178.99L498.69 179.34L498.41 179.68L498.11 180.01L497.81 180.33L497.49 180.64L497.16 180.93L496.81 181.22L496.45 181.49L496.09 181.74L495.71 181.99L495.32 182.22L494.92 182.43L494.51 182.63L494.09 182.81L493.66 182.98L493.21 183.13L492.76 183.26L492.31 183.38L447.55 193.82L447.09 193.91L446.62 193.99L446.16 194.05L445.7 194.09L445.24 194.11L444.79 194.12L444.33 194.1L443.88 194.07L443.43 194.02L442.99 193.95L442.55 193.87L442.12 193.76L441.69 193.65L441.27 193.51L440.85 193.36L440.44 193.2L440.04 193.01L439.64 192.82L439.25 192.61L438.88 192.38L438.5 192.14L438.14 191.89L437.79 191.62L437.45 191.34L437.12 191.04L436.8 190.74L436.5 190.42L436.2 190.08L435.92 189.74L435.65 189.38L435.39 189.02L435.15 188.64L434.92 188.25L434.7 187.85L434.51 187.44L434.32 187.01L434.15 186.58L434 186.14L433.87 185.69L433.75 185.23L418.1 118.1L418 117.64L417.92 117.18L417.87 116.71L417.82 116.25L417.8 115.79L417.8 115.34L417.81 114.88L417.85 114.43L417.9 113.99L417.97 113.54L418.05 113.1L418.15 112.67L418.27 112.24L418.4 111.82L418.55 111.4L418.72 110.99L418.9 110.59L419.1 110.19L419.31 109.81L419.54 109.43L419.78 109.06L420.03 108.7L420.3 108.34L420.58 108L420.87 107.67L421.18 107.35L421.5 107.05L421.83 106.75L422.18 106.47L422.53 106.2L422.9 105.94L423.28 105.7L423.67 105.47L424.07 105.26L424.48 105.06L424.9 104.87L425.33 104.71L425.77 104.55L426.22 104.42L426.68 104.3L471.44 93.87L471.9 93.77L472.36 93.69L472.83 93.63L473.29 93.59L473.74 93.57L474.2 93.57L474.66 93.58L475.11 93.62ZM453.52 168.83L475.9 163.61L465.47 118.86L443.09 124.07L453.52 168.83Z" id="e19naQmYcz"></path><path d="M249.45 290.63C247.73 293.39 234 315.47 232.29 318.23C228.94 323.61 230.59 330.7 235.97 334.05C241.36 337.4 248.45 335.74 251.8 330.36C251.96 330.09 252.8 328.75 254.3 326.33C259.91 350.41 263.03 363.78 263.66 366.45C265.1 372.63 271.28 376.48 277.45 375.04C283.63 373.6 287.47 367.41 286.06 361.23C284.49 354.52 271.97 300.81 270.41 294.1C269.35 289.58 265.67 286.12 261.08 285.37C256.49 284.6 251.92 286.68 249.45 290.63Z" id="a35tuUQCm5"></path><path d="M406.09 254.11C404.38 256.87 390.65 278.95 388.93 281.71C385.58 287.09 387.24 294.18 392.62 297.53C398 300.88 405.09 299.22 408.44 293.84C408.61 293.57 409.44 292.23 410.95 289.81C416.56 313.89 419.68 327.26 420.3 329.94C421.74 336.11 427.92 339.96 434.1 338.52C440.27 337.08 444.12 330.89 442.68 324.72C441.11 318 428.59 264.3 427.03 257.58C425.97 253.06 422.29 249.61 417.72 248.85C413.11 248.09 408.55 250.17 406.09 254.11Z" id="c630Hg5oe"></path><path d="M349.76 264.4L350.21 264.45L350.65 264.52L351.09 264.61L351.53 264.71L351.96 264.82L352.38 264.96L352.8 265.11L353.21 265.28L353.61 265.46L354 265.65L354.39 265.86L354.77 266.09L355.14 266.33L355.5 266.58L355.85 266.85L356.19 267.13L356.52 267.43L356.84 267.73L357.15 268.05L357.45 268.39L357.73 268.73L358 269.09L358.26 269.45L358.5 269.83L358.73 270.22L358.94 270.62L359.14 271.04L359.32 271.46L359.49 271.89L359.64 272.33L359.78 272.78L359.89 273.24L375.55 340.37L375.64 340.83L375.72 341.3L375.78 341.76L375.82 342.22L375.84 342.68L375.85 343.13L375.83 343.59L375.8 344.04L375.75 344.49L375.68 344.93L375.6 345.37L375.49 345.8L375.38 346.23L375.24 346.65L375.09 347.07L374.93 347.48L374.74 347.88L374.55 348.28L374.34 348.67L374.11 349.04L373.87 349.41L373.62 349.78L373.35 350.13L373.07 350.47L372.77 350.8L372.47 351.12L372.15 351.42L371.81 351.72L371.47 352L371.11 352.27L370.75 352.53L370.37 352.77L369.98 353L369.58 353.22L369.17 353.41L368.74 353.6L368.31 353.77L367.87 353.92L367.42 354.05L366.96 354.17L322.21 364.6L321.75 364.7L321.28 364.78L320.82 364.84L320.36 364.88L319.9 364.9L319.44 364.9L318.99 364.89L318.54 364.85L318.09 364.8L317.65 364.74L317.21 364.65L316.78 364.55L316.35 364.43L315.93 364.3L315.51 364.15L315.1 363.98L314.7 363.8L314.3 363.6L313.91 363.39L313.53 363.17L313.16 362.93L312.8 362.67L312.45 362.41L312.11 362.12L311.78 361.83L311.46 361.52L311.15 361.2L310.86 360.87L310.58 360.53L310.31 360.17L310.05 359.8L309.81 359.42L309.58 359.03L309.36 358.63L309.16 358.22L308.98 357.8L308.81 357.37L308.66 356.93L308.53 356.48L308.41 356.02L292.76 288.89L292.66 288.42L292.58 287.96L292.52 287.5L292.48 287.04L292.46 286.58L292.46 286.12L292.47 285.67L292.51 285.22L292.56 284.77L292.62 284.33L292.71 283.89L292.81 283.46L292.93 283.03L293.06 282.6L293.21 282.19L293.38 281.78L293.56 281.37L293.76 280.98L293.97 280.59L294.19 280.21L294.43 279.84L294.69 279.48L294.96 279.13L295.24 278.79L295.53 278.46L295.84 278.14L296.16 277.83L296.49 277.54L296.84 277.25L297.19 276.98L297.56 276.73L297.94 276.48L298.33 276.26L298.73 276.04L299.14 275.84L299.56 275.66L299.99 275.49L300.43 275.34L300.88 275.21L301.34 275.09L346.1 264.66L346.56 264.56L347.02 264.48L347.48 264.42L347.94 264.38L348.4 264.36L348.86 264.35L349.31 264.37L349.76 264.4ZM328.18 339.61L350.56 334.4L340.12 289.64L317.75 294.86L328.18 339.61Z" id="a3YAKuZEG0"></path><path d="M193.12 300.92L193.57 300.97L194.01 301.04L194.45 301.12L194.88 301.23L195.31 301.34L195.73 301.48L196.15 301.63L196.56 301.79L196.96 301.98L197.36 302.17L197.75 302.38L198.13 302.61L198.5 302.85L198.86 303.1L199.21 303.37L199.55 303.65L199.88 303.95L200.2 304.25L200.51 304.57L200.8 304.91L201.08 305.25L201.35 305.61L201.61 305.97L201.85 306.35L202.08 306.74L202.3 307.14L202.5 307.55L202.68 307.98L202.85 308.41L203 308.85L203.13 309.3L203.25 309.76L218.9 376.89L219 377.35L219.08 377.81L219.14 378.28L219.18 378.74L219.2 379.2L219.2 379.65L219.19 380.11L219.15 380.56L219.1 381L219.04 381.45L218.95 381.89L218.85 382.32L218.73 382.75L218.6 383.17L218.45 383.59L218.28 384L218.1 384.4L217.9 384.8L217.69 385.18L217.47 385.56L217.23 385.93L216.97 386.29L216.71 386.65L216.42 386.99L216.13 387.32L215.82 387.64L215.5 387.94L215.17 388.24L214.83 388.52L214.47 388.79L214.1 389.05L213.72 389.29L213.33 389.52L212.93 389.73L212.52 389.93L212.1 390.12L211.67 390.28L211.23 390.44L210.78 390.57L210.32 390.69L165.56 401.12L165.1 401.22L164.64 401.3L164.18 401.36L163.72 401.4L163.26 401.42L162.8 401.42L162.35 401.41L161.9 401.37L161.45 401.32L161.01 401.26L160.57 401.17L160.13 401.07L159.7 400.95L159.28 400.82L158.86 400.67L158.45 400.5L158.05 400.32L157.66 400.12L157.27 399.91L156.89 399.69L156.52 399.45L156.16 399.19L155.81 398.92L155.47 398.64L155.14 398.35L154.82 398.04L154.51 397.72L154.21 397.39L153.93 397.04L153.66 396.69L153.4 396.32L153.16 395.94L152.93 395.55L152.72 395.15L152.52 394.74L152.34 394.32L152.17 393.89L152.02 393.45L151.88 393L151.77 392.54L136.12 325.41L136.02 324.94L135.94 324.48L135.88 324.02L135.84 323.56L135.82 323.1L135.81 322.64L135.83 322.19L135.86 321.74L135.91 321.29L135.98 320.85L136.07 320.41L136.17 319.97L136.28 319.55L136.42 319.12L136.57 318.71L136.74 318.3L136.92 317.89L137.11 317.5L137.32 317.11L137.55 316.73L137.79 316.36L138.04 316L138.31 315.65L138.59 315.31L138.89 314.98L139.19 314.66L139.51 314.35L139.85 314.06L140.19 313.77L140.55 313.5L140.92 313.25L141.29 313L141.68 312.78L142.08 312.56L142.5 312.36L142.92 312.18L143.35 312.01L143.79 311.86L144.24 311.73L144.7 311.61L189.45 301.17L189.91 301.08L190.38 301L190.84 300.94L191.3 300.9L191.76 300.88L192.21 300.87L192.67 300.89L193.12 300.92ZM171.54 376.13L193.91 370.92L183.48 326.16L161.1 331.38L171.54 376.13Z" id="h19ZzjmXuz"></path><path d="M506.41 227.88L506.86 227.93L507.3 228L507.74 228.09L508.17 228.19L508.6 228.31L509.02 228.44L509.44 228.59L509.85 228.76L510.25 228.94L510.65 229.13L511.04 229.34L511.41 229.57L511.79 229.81L512.15 230.06L512.5 230.33L512.84 230.61L513.17 230.91L513.49 231.22L513.79 231.54L514.09 231.87L514.37 232.21L514.64 232.57L514.9 232.94L515.14 233.31L515.37 233.7L515.59 234.1L515.78 234.52L515.97 234.94L516.14 235.37L516.29 235.81L516.42 236.26L516.54 236.72L532.19 303.85L532.29 304.31L532.37 304.78L532.42 305.24L532.47 305.7L532.49 306.16L532.49 306.61L532.48 307.07L532.44 307.52L532.39 307.97L532.32 308.41L532.24 308.85L532.14 309.28L532.02 309.71L531.89 310.13L531.74 310.55L531.57 310.96L531.39 311.36L531.19 311.76L530.98 312.15L530.75 312.53L530.51 312.9L530.26 313.26L529.99 313.61L529.71 313.95L529.42 314.28L529.11 314.6L528.79 314.9L528.46 315.2L528.11 315.48L527.76 315.75L527.39 316.01L527.01 316.25L526.62 316.48L526.22 316.7L525.81 316.89L525.39 317.08L524.96 317.25L524.52 317.4L524.07 317.53L523.61 317.65L478.85 328.08L478.39 328.18L477.93 328.26L477.46 328.32L477 328.36L476.55 328.38L476.09 328.38L475.63 328.37L475.18 328.34L474.74 328.29L474.29 328.22L473.85 328.13L473.42 328.03L472.99 327.91L472.57 327.78L472.15 327.63L471.74 327.46L471.34 327.28L470.94 327.08L470.56 326.87L470.18 326.65L469.81 326.41L469.45 326.15L469.1 325.89L468.75 325.6L468.42 325.31L468.11 325L467.8 324.68L467.5 324.35L467.22 324.01L466.95 323.65L466.69 323.28L466.45 322.9L466.22 322.51L466.01 322.11L465.81 321.7L465.62 321.28L465.46 320.85L465.31 320.41L465.17 319.96L465.05 319.5L449.4 252.37L449.31 251.9L449.23 251.44L449.17 250.98L449.13 250.52L449.11 250.06L449.1 249.6L449.12 249.15L449.15 248.7L449.2 248.25L449.27 247.81L449.35 247.37L449.45 246.94L449.57 246.51L449.71 246.08L449.86 245.67L450.02 245.26L450.2 244.85L450.4 244.46L450.61 244.07L450.84 243.69L451.08 243.32L451.33 242.96L451.6 242.61L451.88 242.27L452.18 241.94L452.48 241.62L452.8 241.31L453.13 241.02L453.48 240.74L453.84 240.47L454.2 240.21L454.58 239.97L454.97 239.74L455.37 239.52L455.78 239.32L456.2 239.14L456.64 238.97L457.08 238.82L457.53 238.69L457.98 238.57L502.74 228.14L503.2 228.04L503.67 227.96L504.13 227.9L504.59 227.86L505.05 227.84L505.5 227.83L505.96 227.85L506.41 227.88ZM484.82 303.09L507.2 297.88L496.77 253.12L474.39 258.34L484.82 303.09Z" id="b1TDOr5Cxm"></path></defs><g><g><use xlink:href="#b6mM0osff5" opacity="1" fill="#ff9e2b" fill-opacity="1"></use><g><use xlink:href="#b6mM0osff5" opacity="1" fill-opacity="0" stroke="#000000" stroke-width="1" stroke-opacity="0"></use></g></g><g><use xlink:href="#a35nW7GZV" opacity="1" fill="#ff9e2b" fill-opacity="1"></use><g><use xlink:href="#a35nW7GZV" opacity="1" fill-opacity="0" stroke="#000000" stroke-width="1" stroke-opacity="0"></use></g></g><g><use xlink:href="#h6OvQX5LRm" opacity="1" fill="#ff9e2b" fill-opacity="1"></use><g><use xlink:href="#h6OvQX5LRm" opacity="1" fill-opacity="0" stroke="#000000" stroke-width="1" stroke-opacity="0"></use></g></g><g><use xlink:href="#acI9ws15a" opacity="1" fill="#ff9e2b" fill-opacity="1"></use><g><use xlink:href="#acI9ws15a" opacity="1" fill-opacity="0" stroke="#000000" stroke-width="1" stroke-opacity="0"></use></g></g><g><use xlink:href="#ccKPSpqkJ" opacity="1" fill="#ff9e2b" fill-opacity="1"></use><g><use xlink:href="#ccKPSpqkJ" opacity="1" fill-opacity="0" stroke="#000000" stroke-width="1" stroke-opacity="0"></use></g></g><g><use xlink:href="#e19naQmYcz" opacity="1" fill="#ff9e2b" fill-opacity="1"></use><g><use xlink:href="#e19naQmYcz" opacity="1" fill-opacity="0" stroke="#000000" stroke-width="1" stroke-opacity="0"></use></g></g><g><use xlink:href="#a35tuUQCm5" opacity="1" fill="#ff9e2b" fill-opacity="1"></use><g><use xlink:href="#a35tuUQCm5" opacity="1" fill-opacity="0" stroke="#000000" stroke-width="1" stroke-opacity="0"></use></g></g><g><use xlink:href="#c630Hg5oe" opacity="1" fill="#ff9e2b" fill-opacity="1"></use><g><use xlink:href="#c630Hg5oe" opacity="1" fill-opacity="0" stroke="#000000" stroke-width="1" stroke-opacity="0"></use></g></g><g><use xlink:href="#a3YAKuZEG0" opacity="1" fill="#ff9e2b" fill-opacity="1"></use><g><use xlink:href="#a3YAKuZEG0" opacity="1" fill-opacity="0" stroke="#000000" stroke-width="1" stroke-opacity="0"></use></g></g><g><use xlink:href="#h19ZzjmXuz" opacity="1" fill="#ff9e2b" fill-opacity="1"></use><g><use xlink:href="#h19ZzjmXuz" opacity="1" fill-opacity="0" stroke="#000000" stroke-width="1" stroke-opacity="0"></use></g></g><g><use xlink:href="#b1TDOr5Cxm" opacity="1" fill="#ff9e2b" fill-opacity="1"></use><g><use xlink:href="#b1TDOr5Cxm" opacity="1" fill-opacity="0" stroke="#000000" stroke-width="1" stroke-opacity="0"></use></g></g></g></svg>