<svg height="351.41" preserveAspectRatio="xMidYMid meet" viewBox="29.96261996 19.01904352 594.72797116 603.96191296" width="346" xmlns="http://www.w3.org/2000/svg" xmlns:xlink="http://www.w3.org/1999/xlink"><defs><path id="a" d="m496.49 20.26 2.24.25 2.21.34 2.2.43 2.17.51 2.14.59 2.11.67 2.09.75 2.05.83 2.01.91 1.98.98 1.94 1.06 1.9 1.13 1.85 1.2 1.8 1.27 1.76 1.34 1.7 1.41 1.65 1.47 1.6 1.54 1.54 1.6 1.48 1.66 1.41 1.72 1.36 1.78 1.28 1.83 1.22 1.9 1.14 1.95 1.07 2 1 2.05.92 2.1.83 2.15.76 2.2.67 2.25.58 2.29 73.04 313.29.49 2.31.39 2.31.3 2.31.2 2.3.11 2.29.01 2.28-.08 2.27-.16 2.25-.25 2.24-.34 2.22-.43 2.19-.51 2.17-.59 2.14-.67 2.12-.75 2.08-.83 2.05-.91 2.02-.98 1.98-1.06 1.93-1.13 1.9-1.2 1.85-1.27 1.81-1.34 1.75-1.41 1.71-1.47 1.65-1.54 1.6-1.6 1.53-1.66 1.48-1.72 1.42-1.78 1.35-1.84 1.29-1.89 1.21-1.95 1.15-2 1.07-2.05.99-2.1.92-2.15.84-2.2.75-2.25.67-2.29.59-167.83 39.12 5.21 22.38 78.33-18.26 2.31-.49 2.31-.39 2.31-.3 2.3-.2 2.29-.1 2.28-.02 2.27.08 2.25.16 2.24.26 2.21.34 2.2.42 2.17.51 2.14.59 2.11.67 2.09.76 2.05.83 2.01.9 1.98.99 1.94 1.05 1.9 1.13 1.85 1.2 1.8 1.27 1.76 1.34 1.7 1.41 1.66 1.47 1.59 1.54 1.54 1.6 1.48 1.66 1.41 1.72 1.36 1.78 1.28 1.84 1.22 1.89 1.14 1.95 1.07 2 1 2.05.92 2.1.83 2.16.76 2.2.67 2.24.58 2.29.1.47.08.46.06.46.04.46.02.46v.46l-.01.45-.03.45-.06.45-.06.44-.09.44-.1.43-.12.43-.13.43-.15.41-.17.41-.18.41-.2.39-.21.39-.22.38-.24.37-.26.36-.26.35-.29.34-.29.33-.31.32-.32.31-.33.29-.34.29-.36.27-.37.25-.38.25-.39.22-.4.22-.41.2-.42.18-.43.17-.44.15-.45.13-.46.12-313.29 73.04-.46.1-.46.08-.47.06-.46.04-.45.02h-.46l-.46-.01-.45-.04-.44-.05-.45-.07-.44-.08-.43-.1-.43-.12-.42-.13-.42-.15-.41-.17-.4-.18-.4-.2-.38-.21-.38-.22-.37-.24-.36-.26-.35-.27-.35-.28-.33-.29-.31-.31-.31-.32-.3-.33-.28-.35-.27-.35-.26-.37-.24-.38-.23-.39-.21-.4-.2-.41-.19-.42-.16-.43-.15-.44-.14-.45-.12-.46-.49-2.31-.39-2.31-.29-2.31-.2-2.3-.11-2.29-.02-2.28.08-2.27.17-2.26.25-2.23.34-2.22.42-2.19.51-2.17.59-2.15.68-2.11.75-2.08.83-2.05.91-2.02.98-1.98 1.06-1.94 1.13-1.89 1.2-1.85 1.27-1.81 1.34-1.75 1.4-1.71 1.48-1.65 1.53-1.6 1.6-1.54 1.66-1.47 1.72-1.42 1.78-1.35 1.84-1.29 1.89-1.21 1.95-1.15 2-1.07 2.05-.99 2.11-.92 2.15-.84 2.2-.75 2.25-.67 2.29-.59 78.32-18.26-5.22-22.37-167.83 39.12-2.31.49-2.32.4-2.3.29-2.3.2-2.29.11-2.29.01-2.26-.07-2.26-.17-2.23-.25-2.22-.34-2.19-.43-2.17-.51-2.15-.59-2.11-.67-2.08-.75-2.06-.83-2.01-.91-1.98-.98-1.94-1.06-1.89-1.13-1.85-1.2-1.81-1.27-1.76-1.34-1.7-1.41-1.65-1.47-1.6-1.53-1.54-1.6-1.47-1.66-1.42-1.73-1.35-1.77-1.29-1.84-1.21-1.9-1.15-1.94-1.07-2-.99-2.06-.92-2.1-.84-2.15-.75-2.2-.67-2.25-.59-2.29-73.04-313.29-.49-2.31-.39-2.31-.29-2.31-.21-2.3-.1-2.29-.02-2.28.08-2.27.16-2.25.26-2.24.34-2.21.42-2.2.51-2.17.59-2.14.68-2.12.75-2.08.83-2.05.91-2.02.98-1.97 1.05-1.94 1.13-1.9 1.21-1.85 1.27-1.8 1.34-1.76 1.4-1.71 1.47-1.65 1.54-1.59 1.6-1.54 1.66-1.48 1.72-1.42 1.78-1.35 1.84-1.28 1.89-1.22 1.95-1.14 2-1.07 2.05-1 2.11-.92 2.15-.83 2.2-.76 2.24-.67 2.29-.58 402.8-93.91 2.32-.49 2.31-.39 2.3-.3 2.3-.2 2.3-.11 2.28-.01 2.27.07zm-223.16 544.51-1.07.3-1.05.34-1.04.36-1.01.4-1 .43-.98.46-.96.48-.94.51-.92.54-.9.57-.88.6-.86.61-.84.65-.81.66-.79.69-.77.72-.75.73-.73.76-.7.78-.67.8-.65.81-.63.84-.6.85-.57.87-.55.89-.52.91-.5.92-.46.93-.44.95-.41.96-.38.98-.35.98-.33 1-.29 1.01-.26 1.02-.23 1.03-.2 1.04-.17 1.05-.13 1.05 287.08-66.93-.4-.59-.42-.58-.45-.57-.48-.56-.5-.55-.53-.53-.56-.53-.59-.51-.61-.5-.64-.5-.67-.48-.69-.47-.72-.45-.75-.45-.77-.44-.8-.42-.83-.42-.85-.4-.88-.39-.91-.38-.94-.37-.96-.36-.99-.34-1.02-.34-1.04-.33-1.07-.31-1.1-.3-1.12-.29-1.15-.28-1.18-.27-1.21-.26-1.23-.25-1.26-.23-1.28-.23-1.31-.21-1.34-.21-1.37-.19-1.39-.18-1.42-.17-1.45-.15-223.78 52.17zm-145.45-72.29.35 1.38.4 1.35.45 1.32.51 1.29.55 1.26.59 1.23.65 1.2.68 1.17.73 1.14.77 1.1.82 1.07.84 1.03.89 1 .92.96.96.92.99.88 1.03.85 1.05.8 1.08.76 1.11.72 1.14.68 1.16.64 1.19.58 1.21.55 1.23.5 1.25.45 1.27.4 1.28.36 1.31.3 1.31.26 1.33.2 1.34.15 1.36.1 1.36.05 1.37-.01 1.37-.07 1.38-.12 1.39-.17 1.38-.24 1.39-.29 402.8-93.91.92-.24.9-.27.89-.32.88-.36.86-.4.85-.44.83-.48.82-.53.81-.56.79-.61.78-.64.76-.69.75-.73.73-.76.73-.81.7-.85.7-.9.67-.93.67-.97.65-1.02.64-1.05.62-1.1.61-1.14.59-1.17.58-1.22.57-1.26.55-1.3.54-1.35.52-1.38.51-1.42.5-1.47.48-1.5.46-1.55.46-1.59.44-1.63.42-1.67.41-1.71.4-1.75.38-1.79.37-1.83-2.61-11.19-469.93 109.56zm242.04 26.16 22.37-5.22-5.21-22.38-22.38 5.22zm119-475.57-1.38.12-1.38.18-1.39.23-1.39.3-402.8 93.9-1.37.35-1.35.41-1.32.45-1.29.5-1.27.55-1.23.6-1.2.64-1.17.69-1.13.73-1.1.77-1.07.81-1.04.85-.99.89-.96.92-.92.96-.89.99-.84 1.02-.8 1.05-.77 1.09-.72 1.11-.67 1.14-.64 1.16-.59 1.18-.54 1.21-.5 1.23-.45 1.25-.41 1.27-.35 1.29-.31 1.3-.25 1.32-.2 1.33-.16 1.34-.1 1.35-.04 1.36.01 1.37.06 1.38.12 1.38.18 1.38.24 1.39.29 1.39 65.21 279.72 469.94-109.56-65.22-279.72-.35-1.38-.4-1.34-.45-1.32-.5-1.3-.56-1.26-.59-1.23-.65-1.2-.68-1.17-.73-1.14-.77-1.1-.81-1.07-.85-1.03-.89-1-.92-.96-.96-.92-.99-.88-1.02-.84-1.06-.81-1.08-.76-1.11-.72-1.14-.68-1.16-.63-1.19-.59-1.21-.55-1.23-.49-1.25-.46-1.27-.4-1.28-.35-1.3-.31-1.32-.25-1.33-.21-1.34-.15-1.35-.1-1.37-.04-1.36.01z"/><path id="b" d="m307.66 135.5c-1.72 2.76-15.45 24.83-17.16 27.59-3.35 5.38-1.7 12.48 3.68 15.82 5.38 3.35 12.48 1.7 15.83-3.68.16-.27 1-1.62 2.5-4.03 5.61 24.07 8.73 37.44 9.36 40.12 1.44 6.18 7.62 10.02 13.79 8.58 6.18-1.44 10.02-7.62 8.61-13.8-1.57-6.72-14.09-60.42-15.66-67.14-1.05-4.52-4.74-7.98-9.32-8.72-4.6-.79-9.18 1.31-11.63 5.26z"/><path id="c" d="m374.79 119.85c-1.72 2.76-15.45 24.83-17.16 27.59-3.35 5.38-1.69 12.48 3.69 15.82 5.38 3.35 12.47 1.7 15.82-3.69.17-.26 1-1.61 2.5-4.03 5.62 24.08 8.73 37.45 9.36 40.13 1.44 6.17 7.62 10.02 13.8 8.58 6.17-1.44 10.02-7.62 8.58-13.8-1.57-6.71-14.09-60.42-15.65-67.13-1.06-4.52-4.74-7.98-9.31-8.73-4.62-.79-9.18 1.31-11.63 5.26z"/><path id="d" d="m251.33 145.79.45.05.44.06.44.09.43.1.43.12.42.13.42.15.41.17.4.18.4.2.39.21.38.22.37.24.36.26.35.27.34.28.33.29.32.31.3.32.3.33.28.35.27.35.26.37.24.38.23.39.22.4.2.41.18.42.17.43.15.44.13.45.12.46 15.65 67.13.1.47.08.46.06.46.04.46.02.46v.46l-.01.45-.04.45-.05.45-.07.44-.08.44-.1.44-.12.42-.13.43-.15.41-.17.41-.18.41-.2.39-.21.39-.22.38-.24.37-.26.36-.27.35-.28.34-.29.33-.31.32-.32.31-.33.29-.35.29-.35.27-.37.25-.38.25-.39.23-.4.21-.41.2-.42.18-.43.17-.44.15-.45.13-.46.12-44.76 10.44-.46.09-.46.08-.46.06-.47.04-.45.02-.46.01-.45-.02-.46-.03-.44-.05-.45-.07-.43-.08-.44-.11-.43-.11-.42-.14-.42-.15-.41-.16-.4-.18-.4-.2-.38-.21-.38-.23-.37-.24-.36-.25-.35-.27-.34-.28-.33-.3-.32-.3-.31-.32-.3-.34-.28-.34-.27-.36-.26-.36-.24-.38-.23-.39-.21-.4-.2-.41-.19-.42-.16-.44-.15-.44-.14-.45-.11-.45-15.66-67.14-.09-.46-.08-.46-.06-.47-.04-.46-.02-.45-.01-.46.02-.46.03-.45.05-.44.07-.45.08-.44.11-.43.11-.43.14-.42.15-.42.16-.41.18-.4.2-.4.21-.38.23-.38.24-.37.25-.36.27-.35.28-.35.3-.33.3-.31.32-.31.34-.3.34-.28.36-.27.36-.26.38-.24.39-.23.4-.21.41-.2.42-.19.44-.16.44-.15.45-.14.45-.12 44.76-10.43.46-.1.47-.08.46-.06.46-.04.46-.02h.45l.46.01zm-21.58 75.21 22.37-5.22-10.43-44.75-22.38 5.21z"/><path id="e" d="m161.82 166.66.44.05.45.06.44.09.43.1.43.12.42.13.42.15.41.17.4.18.4.2.38.21.38.22.37.24.36.26.36.26.34.29.33.29.32.31.3.32.3.33.28.34.27.36.26.37.24.38.23.39.22.4.19.41.19.42.17.43.15.44.13.45.12.46 15.65 67.13.1.47.08.46.05.46.05.46.02.46v.46l-.01.45-.04.45-.05.45-.07.44-.08.44-.1.43-.12.43-.13.43-.15.41-.17.41-.18.41-.2.39-.21.39-.23.38-.24.37-.25.36-.27.35-.28.34-.29.33-.31.32-.32.31-.33.29-.35.28-.35.28-.37.25-.38.24-.39.23-.4.22-.41.2-.42.18-.43.17-.44.15-.45.13-.46.12-44.76 10.43-.46.1-.46.08-.47.06-.46.04-.45.02-.46.01-.46-.02-.45-.03-.44-.05-.45-.07-.44-.09-.43-.1-.43-.12-.42-.13-.42-.15-.41-.17-.4-.18-.4-.19-.38-.21-.38-.23-.37-.24-.36-.25-.35-.27-.35-.28-.33-.3-.31-.3-.31-.32-.3-.34-.28-.34-.27-.36-.26-.37-.24-.37-.23-.39-.21-.4-.2-.42-.19-.42-.16-.43-.15-.44-.14-.45-.12-.46-15.65-67.13-.09-.46-.08-.47-.06-.46-.04-.46-.02-.46-.01-.45.02-.46.03-.45.05-.45.07-.44.08-.44.1-.43.12-.43.14-.42.15-.42.16-.41.18-.4.2-.4.21-.39.23-.37.24-.37.25-.37.27-.35.28-.34.3-.33.3-.32.32-.3.33-.3.35-.28.36-.27.36-.26.38-.24.39-.23.4-.22.41-.19.42-.19.43-.17.45-.15.45-.13.45-.12 44.76-10.43.46-.1.46-.08.47-.06.46-.04.46-.02h.45l.46.01zm-21.59 75.21 22.38-5.22-10.43-44.76-22.38 5.22z"/><path id="f" d="m475.11 93.62.44.05.45.06.44.09.43.1.43.12.42.13.42.15.41.17.4.18.4.2.38.21.38.22.37.24.36.26.35.27.35.28.33.29.31.31.31.32.3.33.28.35.27.35.26.37.24.38.23.39.21.4.2.41.19.42.16.43.15.44.14.45.12.46 15.65 67.13.09.47.08.46.06.46.04.46.02.46.01.46-.02.45-.03.45-.05.45-.07.44-.08.44-.1.44-.12.42-.14.43-.15.41-.16.41-.18.41-.2.39-.21.39-.23.38-.24.37-.25.36-.27.35-.28.34-.3.33-.3.32-.32.31-.33.29-.35.29-.36.27-.36.25-.38.25-.39.23-.4.21-.41.2-.42.18-.43.17-.45.15-.45.13-.45.12-44.76 10.44-.46.09-.47.08-.46.06-.46.04-.46.02-.45.01-.46-.02-.45-.03-.45-.05-.44-.07-.44-.08-.43-.11-.43-.11-.42-.14-.42-.15-.41-.16-.4-.19-.4-.19-.39-.21-.37-.23-.38-.24-.36-.25-.35-.27-.34-.28-.33-.3-.32-.3-.3-.32-.3-.34-.28-.34-.27-.36-.26-.36-.24-.38-.23-.39-.22-.4-.19-.41-.19-.43-.17-.43-.15-.44-.13-.45-.12-.46-15.65-67.13-.1-.46-.08-.46-.05-.47-.05-.46-.02-.46v-.45l.01-.46.04-.45.05-.44.07-.45.08-.44.1-.43.12-.43.13-.42.15-.42.17-.41.18-.4.2-.4.21-.38.23-.38.24-.37.25-.36.27-.36.28-.34.29-.33.31-.32.32-.3.33-.3.35-.28.35-.27.37-.26.38-.24.39-.23.4-.21.41-.2.42-.19.43-.16.44-.16.45-.13.46-.12 44.76-10.43.46-.1.46-.08.47-.06.46-.04.45-.02h.46l.46.01zm-21.59 75.21 22.38-5.22-10.43-44.75-22.38 5.21z"/><path id="g" d="m249.45 290.63c-1.72 2.76-15.45 24.84-17.16 27.6-3.35 5.38-1.7 12.47 3.68 15.82 5.39 3.35 12.48 1.69 15.83-3.69.16-.27 1-1.61 2.5-4.03 5.61 24.08 8.73 37.45 9.36 40.12 1.44 6.18 7.62 10.03 13.79 8.59 6.18-1.44 10.02-7.63 8.61-13.81-1.57-6.71-14.09-60.42-15.65-67.13-1.06-4.52-4.74-7.98-9.33-8.73-4.59-.77-9.16 1.31-11.63 5.26z"/><path id="h" d="m406.09 254.11c-1.71 2.76-15.44 24.84-17.16 27.6-3.35 5.38-1.69 12.47 3.69 15.82s12.47 1.69 15.82-3.69c.17-.27 1-1.61 2.51-4.03 5.61 24.08 8.73 37.45 9.35 40.13 1.44 6.17 7.62 10.02 13.8 8.58 6.17-1.44 10.02-7.63 8.58-13.8-1.57-6.72-14.09-60.42-15.65-67.14-1.06-4.52-4.74-7.97-9.31-8.73-4.61-.76-9.17 1.32-11.63 5.26z"/><path id="i" d="m349.76 264.4.45.05.44.07.44.09.44.1.43.11.42.14.42.15.41.17.4.18.39.19.39.21.38.23.37.24.36.25.35.27.34.28.33.3.32.3.31.32.3.34.28.34.27.36.26.36.24.38.23.39.21.4.2.42.18.42.17.43.15.44.14.45.11.46 15.66 67.13.09.46.08.47.06.46.04.46.02.46.01.45-.02.46-.03.45-.05.45-.07.44-.08.44-.11.43-.11.43-.14.42-.15.42-.16.41-.19.4-.19.4-.21.39-.23.37-.24.37-.25.37-.27.35-.28.34-.3.33-.3.32-.32.3-.34.3-.34.28-.36.27-.36.26-.38.24-.39.23-.4.22-.41.19-.43.19-.43.17-.44.15-.45.13-.46.12-44.75 10.43-.46.1-.47.08-.46.06-.46.04-.46.02h-.46l-.45-.01-.45-.04-.45-.05-.44-.06-.44-.09-.43-.1-.43-.12-.42-.13-.42-.15-.41-.17-.4-.18-.4-.2-.39-.21-.38-.22-.37-.24-.36-.26-.35-.26-.34-.29-.33-.29-.32-.31-.31-.32-.29-.33-.28-.34-.27-.36-.26-.37-.24-.38-.23-.39-.22-.4-.2-.41-.18-.42-.17-.43-.15-.44-.13-.45-.12-.46-15.65-67.13-.1-.47-.08-.46-.06-.46-.04-.46-.02-.46v-.46l.01-.45.04-.45.05-.45.06-.44.09-.44.1-.43.12-.43.13-.43.15-.41.17-.41.18-.41.2-.39.21-.39.22-.38.24-.37.26-.36.27-.35.28-.34.29-.33.31-.32.32-.31.33-.29.35-.29.35-.27.37-.25.38-.25.39-.22.4-.22.41-.2.42-.18.43-.17.44-.15.45-.13.46-.12 44.76-10.43.46-.1.46-.08.46-.06.46-.04.46-.02.46-.01.45.02zm-21.58 75.21 22.38-5.21-10.44-44.76-22.37 5.22z"/><path id="j" d="m193.12 300.92.45.05.44.07.44.08.43.11.43.11.42.14.42.15.41.16.4.19.4.19.39.21.38.23.37.24.36.25.35.27.34.28.33.3.32.3.31.32.29.34.28.34.27.36.26.36.24.38.23.39.22.4.2.41.18.43.17.43.15.44.13.45.12.46 15.65 67.13.1.46.08.46.06.47.04.46.02.46v.45l-.01.46-.04.45-.05.44-.06.45-.09.44-.1.43-.12.43-.13.42-.15.42-.17.41-.18.4-.2.4-.21.38-.22.38-.24.37-.26.36-.26.36-.29.34-.29.33-.31.32-.32.3-.33.3-.34.28-.36.27-.37.26-.38.24-.39.23-.4.21-.41.2-.42.19-.43.16-.44.16-.45.13-.46.12-44.76 10.43-.46.1-.46.08-.46.06-.46.04-.46.02h-.46l-.45-.01-.45-.04-.45-.05-.44-.06-.44-.09-.44-.1-.43-.12-.42-.13-.42-.15-.41-.17-.4-.18-.39-.2-.39-.21-.38-.22-.37-.24-.36-.26-.35-.27-.34-.28-.33-.29-.32-.31-.31-.32-.3-.33-.28-.35-.27-.35-.26-.37-.24-.38-.23-.39-.21-.4-.2-.41-.18-.42-.17-.43-.15-.44-.14-.45-.11-.46-15.65-67.13-.1-.47-.08-.46-.06-.46-.04-.46-.02-.46-.01-.46.02-.45.03-.45.05-.45.07-.44.09-.44.1-.44.11-.42.14-.43.15-.41.17-.41.18-.41.19-.39.21-.39.23-.38.24-.37.25-.36.27-.35.28-.34.3-.33.3-.32.32-.31.34-.29.34-.29.36-.27.37-.25.37-.25.39-.22.4-.22.42-.2.42-.18.43-.17.44-.15.45-.13.46-.12 44.75-10.44.46-.09.47-.08.46-.06.46-.04.46-.02.45-.01.46.02zm-21.58 75.21 22.37-5.21-10.43-44.76-22.38 5.22z"/><path id="k" d="m506.41 227.88.45.05.44.07.44.09.43.1.43.12.42.13.42.15.41.17.4.18.4.19.39.21.37.23.38.24.36.25.35.27.34.28.33.3.32.31.3.32.3.33.28.34.27.36.26.37.24.37.23.39.22.4.19.42.19.42.17.43.15.44.13.45.12.46 15.65 67.13.1.46.08.47.05.46.05.46.02.46v.45l-.01.46-.04.45-.05.45-.07.44-.08.44-.1.43-.12.43-.13.42-.15.42-.17.41-.18.4-.2.4-.21.39-.23.38-.24.37-.25.36-.27.35-.28.34-.29.33-.31.32-.32.3-.33.3-.35.28-.35.27-.37.26-.38.24-.39.23-.4.22-.41.19-.42.19-.43.17-.44.15-.45.13-.46.12-44.76 10.43-.46.1-.46.08-.47.06-.46.04-.45.02h-.46l-.46-.01-.45-.03-.44-.05-.45-.07-.44-.09-.43-.1-.43-.12-.42-.13-.42-.15-.41-.17-.4-.18-.4-.2-.38-.21-.38-.22-.37-.24-.36-.26-.35-.26-.35-.29-.33-.29-.31-.31-.31-.32-.3-.33-.28-.34-.27-.36-.26-.37-.24-.38-.23-.39-.21-.4-.2-.41-.19-.42-.16-.43-.15-.44-.14-.45-.12-.46-15.65-67.13-.09-.47-.08-.46-.06-.46-.04-.46-.02-.46-.01-.46.02-.45.03-.45.05-.45.07-.44.08-.44.1-.43.12-.43.14-.43.15-.41.16-.41.18-.41.2-.39.21-.39.23-.38.24-.37.25-.36.27-.35.28-.34.3-.33.3-.32.32-.31.33-.29.35-.28.36-.27.36-.26.38-.24.39-.23.4-.22.41-.2.42-.18.44-.17.44-.15.45-.13.45-.12 44.76-10.43.46-.1.47-.08.46-.06.46-.04.46-.02.45-.01.46.02zm-21.59 75.21 22.38-5.21-10.43-44.76-22.38 5.22z"/></defs><use fill="#ff9e2b" xlink:href="#a"/><use fill="none" xlink:href="#a"/><use fill="#ff9e2b" xlink:href="#b"/><use fill="none" xlink:href="#b"/><use fill="#ff9e2b" xlink:href="#c"/><use fill="none" xlink:href="#c"/><use fill="#ff9e2b" xlink:href="#d"/><use fill="none" xlink:href="#d"/><use fill="#ff9e2b" xlink:href="#e"/><use fill="none" xlink:href="#e"/><use fill="#ff9e2b" xlink:href="#f"/><use fill="none" xlink:href="#f"/><use fill="#ff9e2b" xlink:href="#g"/><use fill="none" xlink:href="#g"/><use fill="#ff9e2b" xlink:href="#h"/><use fill="none" xlink:href="#h"/><use fill="#ff9e2b" xlink:href="#i"/><use fill="none" xlink:href="#i"/><use fill="#ff9e2b" xlink:href="#j"/><use fill="none" xlink:href="#j"/><use fill="#ff9e2b" xlink:href="#k"/><use fill="none" xlink:href="#k"/></svg>