<?xml version="1.0" encoding="UTF-8" standalone="no"?>
<!DOCTYPE svg PUBLIC "-//W3C//DTD SVG 1.1//EN" "http://www.w3.org/Graphics/SVG/1.1/DTD/svg11.dtd">
<svg version="1.1" xmlns="http://www.w3.org/2000/svg" xmlns:xlink="http://www.w3.org/1999/xlink" preserveAspectRatio="xMidYMid meet" viewBox="64.15237185055271 27.23938761322878 520.0158181749694 567.8963861800959" width="516.02" height="563.9"><defs><path d="M385.92 200.69L327.85 185.13L347.3 112.54L405.37 128.1L385.92 200.69ZM375.83 183.23L387.9 138.19L357.38 130.01L345.31 175.05L375.83 183.23Z" id="go3s87PJI"></path><path d="M222.05 397.98C218.04 396.9 213.92 399.28 212.85 403.29C211.77 407.3 214.15 411.42 218.16 412.5C232.68 416.39 348.83 447.51 363.34 451.4C367.36 452.47 371.47 450.1 372.55 446.08C373.62 442.07 371.25 437.96 367.23 436.88C338.2 429.1 236.57 401.87 222.05 397.98Z" id="b2D3uW7POS"></path><path d="M237.61 339.9C233.6 338.83 229.48 341.21 228.41 345.22C227.33 349.23 229.71 353.35 233.72 354.42C248.24 358.31 364.39 389.43 378.91 393.32C382.92 394.4 387.03 392.02 388.11 388.01C389.18 384 386.81 379.88 382.8 378.81C353.76 371.03 252.13 343.79 237.61 339.9Z" id="b2UsIoCpn"></path><path d="M415.06 519.72L139.21 445.81L189.78 257.07L465.63 330.98L415.06 519.72ZM404.43 501.31L447.23 341.61L200.41 275.47L157.62 435.18L404.43 501.31Z" id="aCVv72FDI"></path><path d="M205.91 28.29L207.11 28.38L208.31 28.53L209.51 28.72L210.72 28.97L211.92 29.27L519.43 111.66L519.5 112L581.17 219.21L487.21 569.85L486.87 571.04L486.48 572.21L486.05 573.35L485.57 574.46L485.05 575.55L484.5 576.61L483.9 577.63L483.27 578.63L482.61 579.61L481.9 580.54L481.17 581.45L480.4 582.33L479.6 583.17L478.76 583.98L477.9 584.76L477.02 585.5L476.1 586.21L475.16 586.88L474.19 587.51L473.21 588.11L472.2 588.66L471.16 589.18L470.11 589.66L469.05 590.1L467.96 590.5L466.86 590.86L465.74 591.17L464.61 591.44L463.46 591.67L462.31 591.86L461.14 592L459.97 592.09L458.79 592.14L457.6 592.14L456.41 592.09L455.21 591.99L454.01 591.85L452.8 591.65L451.6 591.41L450.4 591.11L87.43 493.85L86.24 493.51L85.08 493.12L83.94 492.69L82.83 492.21L81.74 491.7L80.68 491.14L79.65 490.55L78.65 489.92L77.68 489.25L76.74 488.54L75.84 487.81L74.96 487.04L74.12 486.24L73.3 485.41L72.53 484.55L71.79 483.66L71.08 482.74L70.41 481.8L69.78 480.84L69.18 479.85L68.62 478.84L68.1 477.81L67.62 476.76L67.19 475.69L66.79 474.6L66.43 473.5L66.12 472.38L65.84 471.25L65.62 470.11L65.43 468.95L65.29 467.79L65.2 466.61L65.15 465.43L65.15 464.24L65.2 463.05L65.3 461.85L65.44 460.65L65.64 459.44L65.88 458.24L66.18 457.04L175.1 50.52L175.45 49.33L175.84 48.17L176.27 47.03L176.75 45.91L177.26 44.83L177.82 43.77L178.41 42.74L179.04 41.74L179.71 40.77L180.41 39.83L181.15 38.92L181.92 38.05L182.72 37.2L183.55 36.39L184.41 35.62L185.3 34.87L186.22 34.17L187.16 33.5L188.12 32.86L189.11 32.27L190.12 31.71L191.15 31.19L192.2 30.71L193.27 30.27L194.36 29.87L195.46 29.52L196.58 29.2L197.71 28.93L198.85 28.7L200.01 28.52L201.17 28.38L202.35 28.29L203.53 28.24L204.72 28.24L205.91 28.29ZM203.25 43.3L202.66 43.34L202.08 43.41L201.5 43.51L200.93 43.62L200.36 43.76L199.81 43.91L199.25 44.09L198.71 44.29L198.18 44.51L197.65 44.75L197.13 45.01L196.63 45.29L196.13 45.59L195.65 45.91L195.18 46.24L194.72 46.59L194.28 46.97L193.85 47.35L193.43 47.76L193.03 48.18L192.65 48.62L192.28 49.07L191.93 49.54L191.59 50.03L191.28 50.53L190.98 51.04L190.7 51.57L190.44 52.11L190.21 52.67L189.99 53.24L189.79 53.82L189.62 54.41L80.7 460.93L80.55 461.53L80.43 462.13L80.33 462.73L80.26 463.33L80.21 463.93L80.19 464.53L80.19 465.12L80.21 465.71L80.26 466.3L80.33 466.88L80.42 467.46L80.53 468.03L80.67 468.59L80.83 469.15L81.01 469.7L81.21 470.25L81.43 470.78L81.67 471.31L81.93 471.82L82.2 472.33L82.5 472.82L82.82 473.31L83.15 473.78L83.51 474.24L83.88 474.68L84.27 475.11L84.67 475.53L85.09 475.93L85.53 476.31L85.99 476.68L86.45 477.03L86.94 477.37L87.44 477.68L87.95 477.98L88.48 478.26L89.02 478.52L89.58 478.75L90.15 478.97L90.73 479.16L91.32 479.34L454.29 576.59L454.69 576.69L455.09 576.77L455.5 576.83L455.91 576.87L456.32 576.89L456.74 576.9L457.16 576.89L457.58 576.85L458.01 576.8L458.44 576.73L458.87 576.64L459.3 576.54L459.74 576.41L460.18 576.27L460.63 576.1L461.07 575.92L461.52 575.72L461.98 575.5L462.43 575.26L462.89 575.01L463.35 574.73L463.82 574.44L464.28 574.13L464.76 573.79L465.23 573.45L465.71 573.08L466.19 572.69L466.67 572.28L467.15 571.86L467.64 571.42L468.13 570.96L468.63 570.48L469.13 569.98L469.63 569.46L470.13 568.92L470.64 568.37L471.15 567.8L471.66 567.2L472.18 566.59L472.69 565.96L565.04 221.32L509.36 124.52L462.1 111.86L423.12 257.34L205.35 198.99L244.33 53.51L208.03 43.78L207.43 43.64L206.83 43.51L206.23 43.42L205.63 43.34L205.03 43.3L204.43 43.27L203.84 43.27L203.25 43.3ZM412.28 238.57L447.14 108.48L258.97 58.06L224.12 188.15L412.28 238.57Z" id="fpIZeIAQm"></path></defs><g><g><use xlink:href="#go3s87PJI" opacity="1" fill="#36197f" fill-opacity="1"></use><g><use xlink:href="#go3s87PJI" opacity="1" fill-opacity="0" stroke="#000000" stroke-width="1" stroke-opacity="0"></use></g></g><g><use xlink:href="#b2D3uW7POS" opacity="1" fill="#36197f" fill-opacity="1"></use><g><use xlink:href="#b2D3uW7POS" opacity="1" fill-opacity="0" stroke="#000000" stroke-width="1" stroke-opacity="0"></use></g></g><g><use xlink:href="#b2UsIoCpn" opacity="1" fill="#36197f" fill-opacity="1"></use><g><use xlink:href="#b2UsIoCpn" opacity="1" fill-opacity="0" stroke="#000000" stroke-width="1" stroke-opacity="0"></use></g></g><g><use xlink:href="#aCVv72FDI" opacity="1" fill="#36197f" fill-opacity="1"></use><g><use xlink:href="#aCVv72FDI" opacity="1" fill-opacity="0" stroke="#000000" stroke-width="1" stroke-opacity="0"></use></g></g><g><use xlink:href="#fpIZeIAQm" opacity="1" fill="#36197f" fill-opacity="1"></use><g><use xlink:href="#fpIZeIAQm" opacity="1" fill-opacity="0" stroke="#000000" stroke-width="1" stroke-opacity="0"></use></g></g></g></svg>