<svg height="563.9" preserveAspectRatio="xMidYMid meet" viewBox="64.15237185 27.23938761 520.01581817 567.89638618" width="516.02" xmlns="http://www.w3.org/2000/svg" xmlns:xlink="http://www.w3.org/1999/xlink"><defs><path id="a" d="m385.92 200.69-58.07-15.56 19.45-72.59 58.07 15.56zm-10.09-17.46 12.07-45.04-30.52-8.18-12.07 45.04z"/><path id="b" d="m222.05 397.98c-4.01-1.08-8.13 1.3-9.2 5.31-1.08 4.01 1.3 8.13 5.31 9.21 14.52 3.89 130.67 35.01 145.18 38.9 4.02 1.07 8.13-1.3 9.21-5.32 1.07-4.01-1.3-8.12-5.32-9.2-29.03-7.78-130.66-35.01-145.18-38.9z"/><path id="c" d="m237.61 339.9c-4.01-1.07-8.13 1.31-9.2 5.32-1.08 4.01 1.3 8.13 5.31 9.2 14.52 3.89 130.67 35.01 145.19 38.9 4.01 1.08 8.12-1.3 9.2-5.31 1.07-4.01-1.3-8.13-5.31-9.2-29.04-7.78-130.67-35.02-145.19-38.91z"/><path id="d" d="m415.06 519.72-275.85-73.91 50.57-188.74 275.85 73.91zm-10.63-18.41 42.8-159.7-246.82-66.14-42.79 159.71z"/><path id="e" d="m205.91 28.29 1.2.09 1.2.15 1.2.19 1.21.25 1.2.3 307.51 82.39.07.34 61.67 107.21-93.96 350.64-.34 1.19-.39 1.17-.43 1.14-.48 1.11-.52 1.09-.55 1.06-.6 1.02-.63 1-.66.98-.71.93-.73.91-.77.88-.8.84-.84.81-.86.78-.88.74-.92.71-.94.67-.97.63-.98.6-1.01.55-1.04.52-1.05.48-1.06.44-1.09.4-1.1.36-1.12.31-1.13.27-1.15.23-1.15.19-1.17.14-1.17.09-1.18.05h-1.19l-1.19-.05-1.2-.1-1.2-.14-1.21-.2-1.2-.24-1.2-.3-362.97-97.26-1.19-.34-1.16-.39-1.14-.43-1.11-.48-1.09-.51-1.06-.56-1.03-.59-1-.63-.97-.67-.94-.71-.9-.73-.88-.77-.84-.8-.82-.83-.77-.86-.74-.89-.71-.92-.67-.94-.63-.96-.6-.99-.56-1.01-.52-1.03-.48-1.05-.43-1.07-.4-1.09-.36-1.1-.31-1.12-.28-1.13-.22-1.14-.19-1.16-.14-1.16-.09-1.18-.05-1.18v-1.19l.05-1.19.1-1.2.14-1.2.2-1.21.24-1.2.3-1.2 108.92-406.52.35-1.19.39-1.16.43-1.14.48-1.12.51-1.08.56-1.06.59-1.03.63-1 .67-.97.7-.94.74-.91.77-.87.8-.85.83-.81.86-.77.89-.75.92-.7.94-.67.96-.64.99-.59 1.01-.56 1.03-.52 1.05-.48 1.07-.44 1.09-.4 1.1-.35 1.12-.32 1.13-.27 1.14-.23 1.16-.18 1.16-.14 1.18-.09 1.18-.05h1.19zm-2.66 15.01-.59.04-.58.07-.58.1-.57.11-.57.14-.55.15-.56.18-.54.2-.53.22-.53.24-.52.26-.5.28-.5.3-.48.32-.47.33-.46.35-.44.38-.43.38-.42.41-.4.42-.38.44-.37.45-.35.47-.34.49-.31.5-.3.51-.28.53-.26.54-.23.56-.22.57-.2.58-.17.59-108.92 406.52-.15.6-.12.6-.1.6-.07.6-.05.6-.02.6v.59l.02.59.05.59.07.58.09.58.11.57.14.56.16.56.18.55.2.55.22.53.24.53.26.51.27.51.3.49.32.49.33.47.36.46.37.44.39.43.4.42.42.4.44.38.46.37.46.35.49.34.5.31.51.3.53.28.54.26.56.23.57.22.58.19.59.18 362.97 97.25.4.1.4.08.41.06.41.04.41.02.42.01.42-.01.42-.04.43-.05.43-.07.43-.09.43-.1.44-.13.44-.14.45-.17.44-.18.45-.2.46-.22.45-.24.46-.25.46-.28.47-.29.46-.31.48-.34.47-.34.48-.37.48-.39.48-.41.48-.42.49-.44.49-.46.5-.48.5-.5.5-.52.5-.54.51-.55.51-.57.51-.6.52-.61.51-.63 92.35-344.64-55.68-96.8-47.26-12.66-38.98 145.48-217.77-58.35 38.98-145.48-36.3-9.73-.6-.14-.6-.13-.6-.09-.6-.08-.6-.04-.6-.03h-.59zm209.03 195.27 34.86-130.09-188.17-50.42-34.85 130.09z"/></defs><use fill="#36197f" xlink:href="#a"/><use fill="none" xlink:href="#a"/><use fill="#36197f" xlink:href="#b"/><use fill="none" xlink:href="#b"/><use fill="#36197f" xlink:href="#c"/><use fill="none" xlink:href="#c"/><use fill="#36197f" xlink:href="#d"/><use fill="none" xlink:href="#d"/><use fill="#36197f" xlink:href="#e"/><use fill="none" xlink:href="#e"/></svg>