<?xml version="1.0" encoding="UTF-8" standalone="no"?>
<!DOCTYPE svg PUBLIC "-//W3C//DTD SVG 1.1//EN" "http://www.w3.org/Graphics/SVG/1.1/DTD/svg11.dtd">
<svg version="1.1" xmlns="http://www.w3.org/2000/svg" xmlns:xlink="http://www.w3.org/1999/xlink" preserveAspectRatio="xMidYMid meet" viewBox="49.959393998454026 67.68016516502237 603.8510372662478 513.3619519074146" width="464" height="394"><defs><path d="M201.74 68.77L202.79 68.88L203.84 69.03L204.89 69.23L205.93 69.46L206.96 69.74L207.99 70.06L209.02 70.42L210.03 70.83L211.03 71.28L212.02 71.77L213 72.31L253.14 95.49L256.28 90.05L256.94 88.96L257.64 87.9L258.38 86.88L259.15 85.9L259.95 84.95L260.79 84.05L261.66 83.18L262.55 82.35L263.48 81.56L264.43 80.81L265.41 80.1L266.42 79.44L267.44 78.81L268.49 78.22L269.55 77.68L270.64 77.17L271.74 76.71L272.86 76.3L273.99 75.92L275.14 75.59L276.3 75.31L277.47 75.06L278.64 74.87L279.83 74.71L281.02 74.6L282.22 74.54L283.42 74.53L284.62 74.56L285.82 74.64L287.02 74.76L288.22 74.93L289.42 75.15L290.61 75.42L291.8 75.74L292.97 76.1L294.14 76.52L295.3 76.98L296.45 77.5L297.58 78.06L298.7 78.68L606.19 256.21L606.63 256.45L607.08 256.68L607.53 256.88L607.99 257.06L608.45 257.23L608.91 257.37L609.38 257.49L609.85 257.6L610.32 257.69L610.79 257.75L611.27 257.8L611.74 257.83L612.21 257.85L612.69 257.84L613.16 257.82L613.63 257.77L614.09 257.71L614.56 257.63L615.02 257.54L615.47 257.43L615.93 257.3L616.37 257.15L616.81 256.98L617.25 256.8L617.68 256.6L618.1 256.39L618.51 256.16L618.91 255.91L619.31 255.65L619.69 255.37L620.07 255.07L620.43 254.76L620.79 254.44L621.13 254.1L621.46 253.74L621.77 253.37L622.08 252.98L622.37 252.58L622.64 252.16L622.9 251.73L623.15 251.29L623.37 250.84L623.57 250.39L623.76 249.93L623.92 249.47L624.06 249.01L624.19 248.54L624.29 248.07L624.38 247.6L624.45 247.13L624.5 246.66L624.53 246.18L624.54 245.71L624.53 245.24L624.51 244.77L624.47 244.3L624.41 243.83L624.33 243.37L624.23 242.91L624.12 242.45L623.99 242L623.84 241.55L623.68 241.11L623.5 240.68L623.3 240.25L623.09 239.83L622.86 239.42L622.61 239.01L622.35 238.62L622.07 238.23L621.77 237.86L621.46 237.49L621.13 237.14L620.79 236.8L620.44 236.47L620.06 236.15L619.68 235.84L619.27 235.55L618.86 235.28L618.43 235.02L544.04 192.07L543.71 191.87L543.39 191.66L543.08 191.44L542.78 191.2L542.5 190.96L542.22 190.7L541.96 190.44L541.71 190.17L541.47 189.89L541.24 189.6L541.02 189.3L540.82 189L540.63 188.69L540.45 188.37L540.29 188.05L540.14 187.72L540 187.39L539.87 187.05L539.76 186.7L539.66 186.36L539.57 186.01L539.5 185.65L539.44 185.3L539.39 184.94L539.36 184.58L539.34 184.21L539.33 183.85L539.34 183.49L539.37 183.12L539.41 182.76L539.46 182.39L539.53 182.03L539.61 181.67L539.7 181.31L539.81 180.95L539.94 180.6L540.08 180.25L540.24 179.9L540.41 179.56L540.6 179.22L540.8 178.88L541.01 178.56L541.23 178.25L541.47 177.96L541.71 177.67L541.97 177.39L542.23 177.13L542.5 176.88L542.78 176.64L543.07 176.41L543.37 176.2L543.67 176L543.98 175.8L544.3 175.63L544.62 175.46L544.95 175.31L545.28 175.17L545.62 175.04L545.96 174.93L546.31 174.83L546.66 174.74L547.02 174.67L547.37 174.61L547.73 174.56L548.09 174.53L548.46 174.51L548.82 174.51L549.18 174.52L549.55 174.54L549.91 174.58L550.27 174.63L550.64 174.7L551 174.78L551.36 174.88L551.72 174.99L552.07 175.11L552.42 175.26L552.77 175.41L553.11 175.58L553.45 175.77L627.84 218.72L628.93 219.38L629.99 220.08L631.01 220.81L631.99 221.58L632.94 222.39L633.84 223.23L634.71 224.1L635.54 224.99L636.33 225.92L637.08 226.87L637.78 227.85L638.45 228.85L639.08 229.88L639.67 230.93L640.21 231.99L640.71 233.08L641.17 234.18L641.59 235.3L641.96 236.43L642.29 237.58L642.58 238.74L642.82 239.91L643.02 241.08L643.18 242.27L643.28 243.46L643.34 244.66L643.36 245.86L643.33 247.06L643.25 248.26L643.13 249.46L642.96 250.66L642.74 251.86L642.47 253.05L642.15 254.24L641.78 255.41L641.37 256.58L640.9 257.74L640.39 258.89L639.82 260.02L639.21 261.14L638.54 262.24L637.85 263.29L637.11 264.31L636.34 265.3L635.53 266.24L634.7 267.15L633.83 268.01L632.93 268.84L632 269.63L631.05 270.38L630.07 271.09L629.07 271.76L628.04 272.38L627 272.97L625.93 273.51L624.84 274.02L623.74 274.48L622.62 274.89L621.49 275.27L620.34 275.6L619.19 275.89L618.02 276.13L616.84 276.33L615.66 276.48L614.46 276.59L613.27 276.65L612.07 276.67L610.87 276.63L609.66 276.56L608.46 276.43L607.26 276.26L606.07 276.04L604.87 275.77L603.69 275.46L602.51 275.09L601.34 274.67L600.18 274.21L599.03 273.69L597.9 273.13L596.78 272.51L289.29 94.98L288.85 94.74L288.4 94.52L287.95 94.31L287.5 94.13L287.04 93.97L286.57 93.82L286.1 93.7L285.63 93.59L285.16 93.51L284.69 93.44L284.22 93.39L283.74 93.36L283.27 93.35L282.8 93.35L282.33 93.38L281.86 93.42L281.39 93.48L280.93 93.56L280.47 93.65L280.01 93.77L279.56 93.9L279.11 94.04L278.67 94.21L278.24 94.39L277.81 94.59L277.39 94.8L276.98 95.03L276.57 95.28L276.18 95.54L275.79 95.82L275.42 96.12L275.05 96.43L274.7 96.75L274.36 97.1L274.03 97.45L273.71 97.82L273.41 98.21L273.12 98.61L272.84 99.03L272.58 99.46L269.44 104.9L637.24 317.25L638.2 317.83L639.12 318.44L640.01 319.08L640.87 319.75L641.7 320.46L642.49 321.19L643.25 321.95L643.97 322.73L644.66 323.54L645.32 324.38L645.94 325.23L646.52 326.11L647.07 327L647.58 327.92L648.06 328.85L648.5 329.8L648.9 330.77L649.26 331.74L649.59 332.73L649.88 333.74L650.13 334.75L650.34 335.77L650.51 336.8L650.65 337.83L650.74 338.88L650.8 339.92L650.81 340.97L650.78 342.02L650.72 343.07L650.61 344.12L650.46 345.17L650.26 346.22L650.03 347.26L649.75 348.29L649.43 349.32L649.07 350.35L648.66 351.36L648.21 352.36L647.72 353.35L647.18 354.33L525.85 564.47L525.28 565.43L524.66 566.35L524.02 567.25L523.35 568.1L522.64 568.93L521.91 569.72L521.15 570.48L520.37 571.2L519.56 571.89L518.72 572.55L517.87 573.17L516.99 573.75L516.1 574.3L515.18 574.81L514.25 575.29L513.3 575.73L512.34 576.13L511.36 576.49L510.37 576.82L509.37 577.11L508.35 577.36L507.33 577.57L506.3 577.75L505.27 577.88L504.23 577.97L503.18 578.03L502.13 578.04L501.08 578.02L500.03 577.95L498.98 577.84L497.93 577.69L496.89 577.5L495.84 577.26L494.81 576.98L493.78 576.66L492.76 576.3L491.74 575.89L490.74 575.44L489.75 574.95L488.77 574.41L64.53 329.48L63.57 328.9L62.65 328.29L61.76 327.64L60.9 326.97L60.07 326.26L59.28 325.53L58.52 324.77L57.8 323.99L57.11 323.18L56.45 322.35L55.83 321.49L55.25 320.61L54.7 319.72L54.19 318.8L53.71 317.87L53.27 316.92L52.87 315.96L52.51 314.98L52.18 313.99L51.89 312.99L51.64 311.98L51.43 310.95L51.26 309.92L51.12 308.89L51.03 307.85L50.97 306.8L50.96 305.75L50.99 304.7L51.05 303.65L51.16 302.6L51.31 301.55L51.51 300.51L51.74 299.47L52.02 298.43L52.34 297.4L52.7 296.38L53.11 295.36L53.56 294.36L54.05 293.37L54.59 292.39L175.92 82.25L176.49 81.29L177.11 80.37L177.75 79.48L178.42 78.62L179.13 77.79L179.86 77L180.62 76.24L181.4 75.52L182.21 74.83L183.05 74.17L183.9 73.55L184.78 72.97L185.67 72.42L186.59 71.91L187.52 71.43L188.47 70.99L189.43 70.59L190.41 70.23L191.4 69.9L192.4 69.61L193.42 69.36L194.44 69.15L195.47 68.98L196.5 68.84L197.54 68.75L198.59 68.69L199.64 68.68L200.69 68.71L201.74 68.77ZM198.85 87.52L198.53 87.55L198.21 87.59L197.9 87.64L197.58 87.71L197.27 87.79L196.97 87.87L196.66 87.97L196.36 88.09L196.07 88.21L195.78 88.34L195.49 88.49L195.21 88.65L194.94 88.82L194.67 88.99L194.4 89.18L194.15 89.38L193.9 89.6L193.66 89.82L193.43 90.05L193.2 90.29L192.99 90.55L192.78 90.81L192.58 91.08L192.4 91.37L192.22 91.66L70.89 301.8L70.73 302.1L70.58 302.41L70.44 302.71L70.31 303.02L70.2 303.34L70.1 303.65L70.02 303.97L69.95 304.29L69.89 304.61L69.84 304.93L69.81 305.26L69.79 305.58L69.78 305.9L69.78 306.22L69.8 306.54L69.83 306.86L69.87 307.18L69.92 307.49L69.99 307.81L70.06 308.12L70.15 308.42L70.25 308.73L70.37 309.03L70.49 309.32L70.62 309.61L70.77 309.9L70.93 310.18L71.09 310.46L71.27 310.72L71.46 310.99L71.66 311.24L71.88 311.49L72.1 311.73L72.33 311.96L72.57 312.19L72.83 312.4L73.09 312.61L73.36 312.81L73.65 313L73.94 313.17L498.18 558.11L498.38 558.22L498.59 558.32L498.8 558.41L499.01 558.49L499.23 558.56L499.45 558.63L499.68 558.68L499.91 558.72L500.14 558.76L500.38 558.78L500.63 558.79L500.87 558.8L501.13 558.79L501.38 558.78L501.64 558.76L501.91 558.72L502.18 558.68L502.45 558.63L502.73 558.57L503.01 558.49L503.3 558.41L503.59 558.32L503.88 558.22L504.18 558.11L504.49 557.99L504.79 557.87L505.11 557.73L505.42 557.58L505.74 557.42L506.07 557.26L506.4 557.08L506.73 556.89L507.07 556.7L507.41 556.49L507.76 556.28L508.11 556.05L508.46 555.82L508.82 555.58L509.18 555.32L509.55 555.06L630.88 344.92L631.04 344.62L631.19 344.32L631.33 344.01L631.46 343.7L631.57 343.38L631.67 343.07L631.75 342.75L631.82 342.43L631.88 342.11L631.93 341.79L631.96 341.47L631.98 341.14L631.99 340.82L631.99 340.5L631.97 340.18L631.94 339.86L631.9 339.54L631.85 339.23L631.78 338.91L631.71 338.6L631.62 338.3L631.52 337.99L631.4 337.69L631.28 337.4L631.15 337.11L631 336.82L630.84 336.54L630.68 336.27L630.5 336L630.31 335.73L630.11 335.48L629.89 335.23L629.67 334.99L629.44 334.76L629.2 334.53L628.94 334.32L628.68 334.11L628.41 333.91L628.12 333.73L627.83 333.55L203.59 88.61L203.29 88.45L202.99 88.3L202.68 88.16L202.37 88.03L202.05 87.92L201.74 87.82L201.42 87.74L201.1 87.67L200.78 87.61L200.46 87.56L200.14 87.53L199.81 87.51L199.49 87.5L199.17 87.5L198.85 87.52Z" id="csaIK9718"></path><path d="M205.22 105.07L205.58 105.11L205.94 105.16L206.31 105.23L206.67 105.31L207.03 105.41L207.39 105.52L207.74 105.64L208.09 105.78L208.44 105.94L208.78 106.11L209.12 106.3L609.75 337.6L610.08 337.8L610.4 338.01L610.71 338.24L611.01 338.47L611.29 338.71L611.57 338.97L611.83 339.23L612.08 339.5L612.32 339.78L612.55 340.07L612.76 340.37L612.97 340.67L613.16 340.98L613.33 341.3L613.5 341.62L613.65 341.95L613.79 342.28L613.92 342.62L614.03 342.97L614.13 343.31L614.22 343.66L614.29 344.02L614.35 344.38L614.4 344.73L614.43 345.09L614.45 345.46L614.45 345.82L614.44 346.18L614.42 346.55L614.38 346.91L614.33 347.28L614.26 347.64L614.18 348L614.08 348.36L613.97 348.72L613.85 349.07L613.71 349.42L613.55 349.77L613.38 350.12L613.19 350.46L505.5 536.98L505.3 537.31L505.09 537.63L504.87 537.94L504.63 538.24L504.39 538.52L504.13 538.8L503.87 539.06L503.6 539.31L503.32 539.55L503.03 539.78L502.73 540L502.43 540.2L502.12 540.39L501.8 540.57L501.48 540.73L501.15 540.88L500.82 541.02L500.48 541.15L500.14 541.26L499.79 541.36L499.44 541.45L499.08 541.52L498.73 541.58L498.37 541.63L498.01 541.66L497.64 541.68L497.28 541.69L496.92 541.68L496.55 541.65L496.19 541.61L495.82 541.56L495.46 541.49L495.1 541.41L494.74 541.32L494.38 541.21L494.03 541.08L493.68 540.94L493.33 540.78L492.99 540.61L492.65 540.42L92.02 309.12L91.69 308.92L91.37 308.71L91.06 308.49L90.76 308.25L90.48 308.01L90.2 307.76L89.94 307.49L89.69 307.22L89.45 306.94L89.22 306.65L89.01 306.35L88.8 306.05L88.61 305.74L88.43 305.42L88.27 305.1L88.12 304.77L87.98 304.44L87.85 304.1L87.74 303.76L87.64 303.41L87.55 303.06L87.48 302.7L87.42 302.35L87.37 301.99L87.34 301.63L87.32 301.27L87.32 300.9L87.33 300.54L87.35 300.17L87.39 299.81L87.44 299.45L87.51 299.08L87.59 298.72L87.68 298.36L87.8 298L87.92 297.65L88.06 297.3L88.22 296.95L88.39 296.61L88.58 296.27L196.27 109.74L196.47 109.41L196.68 109.09L196.9 108.78L197.14 108.48L197.38 108.2L197.63 107.92L197.9 107.66L198.17 107.41L198.45 107.17L198.74 106.94L199.04 106.73L199.34 106.52L199.65 106.33L199.97 106.16L200.29 105.99L200.62 105.84L200.95 105.7L201.29 105.57L201.63 105.46L201.98 105.36L202.33 105.27L202.69 105.2L203.04 105.14L203.4 105.09L203.76 105.06L204.12 105.04L204.49 105.04L204.85 105.05L205.22 105.07ZM493.91 519.42L511.4 489.12L494.31 479.26L476.82 509.55L493.91 519.42ZM460.52 500.14L478.01 469.85L427.54 440.71L410.05 471L460.52 500.14ZM510.73 416.1L510.51 416.42L510.29 416.73L510.06 417.03L509.81 417.31L509.56 417.59L509.3 417.85L509.02 418.1L508.74 418.34L508.46 418.57L508.16 418.78L507.86 418.99L507.54 419.18L507.23 419.35L506.9 419.52L506.58 419.67L506.24 419.81L505.9 419.94L505.56 420.05L505.21 420.15L504.86 420.24L504.51 420.31L504.15 420.37L503.79 420.42L503.43 420.45L503.07 420.47L502.71 420.47L502.34 420.46L501.98 420.44L501.61 420.4L501.25 420.35L500.89 420.28L500.53 420.2L500.17 420.1L499.81 419.99L499.45 419.87L499.1 419.73L498.75 419.57L498.41 419.4L498.07 419.21L487.87 413.32L470.34 443.68L520.81 472.82L565.28 395.79L533.16 377.25L510.93 415.76L510.73 416.1ZM393.75 461.59L411.24 431.3L360.77 402.16L343.28 432.45L393.75 461.59ZM454.04 434.27L471.57 403.91L421.1 374.77L403.57 405.13L454.04 434.27ZM326.98 423.04L344.47 392.75L294 363.61L276.51 393.9L326.98 423.04ZM499.33 398.2L516.86 367.84L481.43 347.38L463.9 377.74L499.33 398.2ZM387.27 395.72L404.8 365.36L354.33 336.22L336.8 366.58L387.27 395.72ZM260.21 384.49L277.7 354.2L227.23 325.06L209.74 355.35L260.21 384.49ZM574.69 379.49L592.18 349.19L541.72 320.06L524.23 350.35L574.69 379.49ZM447.59 368.33L465.12 337.97L414.66 308.83L397.13 339.19L447.59 368.33ZM320.5 357.17L338.03 326.81L287.56 297.67L270.03 328.03L320.5 357.17ZM193.44 345.94L210.93 315.65L160.46 286.51L142.97 316.8L193.44 345.94ZM507.92 340.94L525.41 310.64L474.94 281.51L457.45 311.8L507.92 340.94ZM380.82 329.78L398.36 299.42L347.89 270.28L330.36 300.64L380.82 329.78ZM253.73 318.62L271.26 288.26L220.79 259.12L203.26 289.48L253.73 318.62ZM126.67 307.39L144.16 277.1L127.08 267.23L109.59 297.53L126.67 307.39ZM441.15 302.39L458.64 272.09L408.17 242.96L390.68 273.25L441.15 302.39ZM314.05 291.23L331.58 260.87L281.12 231.73L263.58 262.09L314.05 291.23ZM186.96 280.07L204.49 249.71L154.02 220.57L136.49 250.93L186.96 280.07ZM374.38 263.84L391.87 233.55L341.4 204.41L323.91 234.7L374.38 263.84ZM247.28 252.68L264.81 222.32L214.35 193.18L196.82 223.54L247.28 252.68ZM307.61 225.29L325.1 194.99L274.63 165.86L257.14 196.15L307.61 225.29ZM180.51 214.13L198.05 183.77L180.96 173.9L163.43 204.27L180.51 214.13ZM240.84 186.74L258.33 156.45L207.86 127.31L190.37 157.6L240.84 186.74Z" id="b4mZiSl0Yz"></path><path d="M516.88 169.53C516.86 169.65 516.81 170.08 516.86 169.67C516.87 169.6 516.87 169.56 516.88 169.53Z" id="alxwkwrfs"></path><path d="M531.94 163.46C526.34 159.15 517.74 162.55 516.86 169.67C516.04 176.26 522.2 181.61 528.62 179.99C535.92 177.92 538.05 168.15 531.94 163.46Z" id="frkjYTYSs"></path><path d="M516.88 169.53C516.88 169.53 516.88 169.53 516.88 169.53C516.88 169.5 516.88 169.5 516.88 169.53Z" id="b20lguxJaQ"></path></defs><g><g><use xlink:href="#csaIK9718" opacity="1" fill="#3ef8f4" fill-opacity="1"></use><g><use xlink:href="#csaIK9718" opacity="1" fill-opacity="0" stroke="#000000" stroke-width="1" stroke-opacity="0"></use></g></g><g><use xlink:href="#b4mZiSl0Yz" opacity="1" fill="#3ef8f4" fill-opacity="1"></use><g><use xlink:href="#b4mZiSl0Yz" opacity="1" fill-opacity="0" stroke="#000000" stroke-width="1" stroke-opacity="0"></use></g></g><g><use xlink:href="#alxwkwrfs" opacity="1" fill="#3ef8f4" fill-opacity="1"></use><g><use xlink:href="#alxwkwrfs" opacity="1" fill-opacity="0" stroke="#000000" stroke-width="1" stroke-opacity="0"></use></g></g><g><use xlink:href="#frkjYTYSs" opacity="1" fill="#3ef8f4" fill-opacity="1"></use><g><use xlink:href="#frkjYTYSs" opacity="1" fill-opacity="0" stroke="#000000" stroke-width="1" stroke-opacity="0"></use></g></g><g><use xlink:href="#b20lguxJaQ" opacity="1" fill="#3ef8f4" fill-opacity="1"></use><g><use xlink:href="#b20lguxJaQ" opacity="1" fill-opacity="0" stroke="#000000" stroke-width="1" stroke-opacity="0"></use></g></g></g></svg>