<svg height="394" preserveAspectRatio="xMidYMid meet" viewBox="49.959394 67.68016517 603.85103727 513.36195191" width="464" xmlns="http://www.w3.org/2000/svg" xmlns:xlink="http://www.w3.org/1999/xlink"><defs><path id="a" d="m201.74 68.77 1.05.11 1.05.15 1.05.2 1.04.23 1.03.28 1.03.32 1.03.36 1.01.41 1 .45.99.49.98.54 40.14 23.18 3.14-5.44.66-1.09.7-1.06.74-1.02.77-.98.8-.95.84-.9.87-.87.89-.83.93-.79.95-.75.98-.71 1.01-.66 1.02-.63 1.05-.59 1.06-.54 1.09-.51 1.1-.46 1.12-.41 1.13-.38 1.15-.33 1.16-.28 1.17-.25 1.17-.19 1.19-.16 1.19-.11 1.2-.06 1.2-.01 1.2.03 1.2.08 1.2.12 1.2.17 1.2.22 1.19.27 1.19.32 1.17.36 1.17.42 1.16.46 1.15.52 1.13.56 1.12.62 307.49 177.53.44.24.45.23.45.2.46.18.46.17.46.14.47.12.47.11.47.09.47.06.48.05.47.03.47.02.48-.01.47-.02.47-.05.46-.06.47-.08.46-.09.45-.11.46-.13.44-.15.44-.17.44-.18.43-.2.42-.21.41-.23.4-.25.4-.26.38-.28.38-.3.36-.31.36-.32.34-.34.33-.36.31-.37.31-.39.29-.4.27-.42.26-.43.25-.44.22-.45.2-.45.19-.46.16-.46.14-.46.13-.47.1-.47.09-.47.07-.47.05-.47.03-.48.01-.47-.01-.47-.02-.47-.04-.47-.06-.47-.08-.46-.1-.46-.11-.46-.13-.45-.15-.45-.16-.44-.18-.43-.2-.43-.21-.42-.23-.41-.25-.41-.26-.39-.28-.39-.3-.37-.31-.37-.33-.35-.34-.34-.35-.33-.38-.32-.38-.31-.41-.29-.41-.27-.43-.26-74.39-42.95-.33-.2-.32-.21-.31-.22-.3-.24-.28-.24-.28-.26-.26-.26-.25-.27-.24-.28-.23-.29-.22-.3-.2-.3-.19-.31-.18-.32-.16-.32-.15-.33-.14-.33-.13-.34-.11-.35-.1-.34-.09-.35-.07-.36-.06-.35-.05-.36-.03-.36-.02-.37-.01-.36.01-.36.03-.37.04-.36.05-.37.07-.36.08-.36.09-.36.11-.36.13-.35.14-.35.16-.35.17-.34.19-.34.2-.34.21-.32.22-.31.24-.29.24-.29.26-.28.26-.26.27-.25.28-.24.29-.23.3-.21.3-.2.31-.2.32-.17.32-.17.33-.15.33-.14.34-.13.34-.11.35-.1.35-.09.36-.07.35-.06.36-.05.36-.03.37-.02h.36l.36.01.37.02.36.04.36.05.37.07.36.08.36.1.36.11.35.12.35.15.35.15.34.17.34.19 74.39 42.95 1.09.66 1.06.7 1.02.73.98.77.95.81.9.84.87.87.83.89.79.93.75.95.7.98.67 1 .63 1.03.59 1.05.54 1.06.5 1.09.46 1.1.42 1.12.37 1.13.33 1.15.29 1.16.24 1.17.2 1.17.16 1.19.1 1.19.06 1.2.02 1.2-.03 1.2-.08 1.2-.12 1.2-.17 1.2-.22 1.2-.27 1.19-.32 1.19-.37 1.17-.41 1.17-.47 1.16-.51 1.15-.57 1.13-.61 1.12-.67 1.1-.69 1.05-.74 1.02-.77.99-.81.94-.83.91-.87.86-.9.83-.93.79-.95.75-.98.71-1 .67-1.03.62-1.04.59-1.07.54-1.09.51-1.1.46-1.12.41-1.13.38-1.15.33-1.15.29-1.17.24-1.18.2-1.18.15-1.2.11-1.19.06-1.2.02-1.2-.04-1.21-.07-1.2-.13-1.2-.17-1.19-.22-1.2-.27-1.18-.31-1.18-.37-1.17-.42-1.16-.46-1.15-.52-1.13-.56-1.12-.62-307.49-177.53-.44-.24-.45-.22-.45-.21-.45-.18-.46-.16-.47-.15-.47-.12-.47-.11-.47-.08-.47-.07-.47-.05-.48-.03-.47-.01h-.47l-.47.03-.47.04-.47.06-.46.08-.46.09-.46.12-.45.13-.45.14-.44.17-.43.18-.43.2-.42.21-.41.23-.41.25-.39.26-.39.28-.37.3-.37.31-.35.32-.34.35-.33.35-.32.37-.3.39-.29.4-.28.42-.26.43-3.14 5.44 367.8 212.35.96.58.92.61.89.64.86.67.83.71.79.73.76.76.72.78.69.81.66.84.62.85.58.88.55.89.51.92.48.93.44.95.4.97.36.97.33.99.29 1.01.25 1.01.21 1.02.17 1.03.14 1.03.09 1.05.06 1.04.01 1.05-.03 1.05-.06 1.05-.11 1.05-.15 1.05-.2 1.05-.23 1.04-.28 1.03-.32 1.03-.36 1.03-.41 1.01-.45 1-.49.99-.54.98-121.33 210.14-.57.96-.62.92-.64.9-.67.85-.71.83-.73.79-.76.76-.78.72-.81.69-.84.66-.85.62-.88.58-.89.55-.92.51-.93.48-.95.44-.96.4-.98.36-.99.33-1 .29-1.02.25-1.02.21-1.03.18-1.03.13-1.04.09-1.05.06-1.05.01-1.05-.02-1.05-.07-1.05-.11-1.05-.15-1.04-.19-1.05-.24-1.03-.28-1.03-.32-1.02-.36-1.02-.41-1-.45-.99-.49-.98-.54-424.24-244.93-.96-.58-.92-.61-.89-.65-.86-.67-.83-.71-.79-.73-.76-.76-.72-.78-.69-.81-.66-.83-.62-.86-.58-.88-.55-.89-.51-.92-.48-.93-.44-.95-.4-.96-.36-.98-.33-.99-.29-1-.25-1.01-.21-1.03-.17-1.03-.14-1.03-.09-1.04-.06-1.05-.01-1.05.03-1.05.06-1.05.11-1.05.15-1.05.2-1.04.23-1.04.28-1.04.32-1.03.36-1.02.41-1.02.45-1 .49-.99.54-.98 121.33-210.14.57-.96.62-.92.64-.89.67-.86.71-.83.73-.79.76-.76.78-.72.81-.69.84-.66.85-.62.88-.58.89-.55.92-.51.93-.48.95-.44.96-.4.98-.36.99-.33 1-.29 1.02-.25 1.02-.21 1.03-.17 1.03-.14 1.04-.09 1.05-.06 1.05-.01 1.05.03zm-2.89 18.75-.32.03-.32.04-.31.05-.32.07-.31.08-.3.08-.31.1-.3.12-.29.12-.29.13-.29.15-.28.16-.27.17-.27.17-.27.19-.25.2-.25.22-.24.22-.23.23-.23.24-.21.26-.21.26-.2.27-.18.29-.18.29-121.33 210.14-.16.3-.15.31-.14.3-.13.31-.11.32-.1.31-.08.32-.07.32-.06.32-.05.32-.03.33-.02.32-.01.32v.32l.02.32.03.32.04.32.05.31.07.32.07.31.09.3.1.31.12.3.12.29.13.29.15.29.16.28.16.28.18.26.19.27.2.25.22.25.22.24.23.23.24.23.26.21.26.21.27.2.29.19.29.17 424.24 244.94.2.11.21.1.21.09.21.08.22.07.22.07.23.05.23.04.23.04.24.02.25.01.24.01.26-.01.25-.01.26-.02.27-.04.27-.04.27-.05.28-.06.28-.08.29-.08.29-.09.29-.1.3-.11.31-.12.3-.12.32-.14.31-.15.32-.16.33-.16.33-.18.33-.19.34-.19.34-.21.35-.21.35-.23.35-.23.36-.24.36-.26.37-.26 121.33-210.14.16-.3.15-.3.14-.31.13-.31.11-.32.1-.31.08-.32.07-.32.06-.32.05-.32.03-.32.02-.33.01-.32v-.32l-.02-.32-.03-.32-.04-.32-.05-.31-.07-.32-.07-.31-.09-.3-.1-.31-.12-.3-.12-.29-.13-.29-.15-.29-.16-.28-.16-.27-.18-.27-.19-.27-.2-.25-.22-.25-.22-.24-.23-.23-.24-.23-.26-.21-.26-.21-.27-.2-.29-.18-.29-.18-424.24-244.94-.3-.16-.3-.15-.31-.14-.31-.13-.32-.11-.31-.1-.32-.08-.32-.07-.32-.06-.32-.05-.32-.03-.33-.02-.32-.01h-.32z"/><path id="b" d="m205.22 105.07.36.04.36.05.37.07.36.08.36.1.36.11.35.12.35.14.35.16.34.17.34.19 400.63 231.3.33.2.32.21.31.23.3.23.28.24.28.26.26.26.25.27.24.28.23.29.21.3.21.3.19.31.17.32.17.32.15.33.14.33.13.34.11.35.1.34.09.35.07.36.06.36.05.35.03.36.02.37v.36l-.01.36-.02.37-.04.36-.05.37-.07.36-.08.36-.1.36-.11.36-.12.35-.14.35-.16.35-.17.35-.19.34-107.69 186.52-.2.33-.21.32-.22.31-.24.3-.24.28-.26.28-.26.26-.27.25-.28.24-.29.23-.3.22-.3.2-.31.19-.32.18-.32.16-.33.15-.33.14-.34.13-.34.11-.35.1-.35.09-.36.07-.35.06-.36.05-.36.03-.37.02-.36.01-.36-.01-.37-.03-.36-.04-.37-.05-.36-.07-.36-.08-.36-.09-.36-.11-.35-.13-.35-.14-.35-.16-.34-.17-.34-.19-400.63-231.3-.33-.2-.32-.21-.31-.22-.3-.24-.28-.24-.28-.25-.26-.27-.25-.27-.24-.28-.23-.29-.21-.3-.21-.3-.19-.31-.18-.32-.16-.32-.15-.33-.14-.33-.13-.34-.11-.34-.1-.35-.09-.35-.07-.36-.06-.35-.05-.36-.03-.36-.02-.36v-.37l.01-.36.02-.37.04-.36.05-.36.07-.37.08-.36.09-.36.12-.36.12-.35.14-.35.16-.35.17-.34.19-.34 107.69-186.53.2-.33.21-.32.22-.31.24-.3.24-.28.25-.28.27-.26.27-.25.28-.24.29-.23.3-.21.3-.21.31-.19.32-.17.32-.17.33-.15.33-.14.34-.13.34-.11.35-.1.35-.09.36-.07.35-.06.36-.05.36-.03.36-.02h.37l.36.01zm288.69 414.35 17.49-30.3-17.09-9.86-17.49 30.29zm-33.39-19.28 17.49-30.29-50.47-29.14-17.49 30.29zm50.21-84.04-.22.32-.22.31-.23.3-.25.28-.25.28-.26.26-.28.25-.28.24-.28.23-.3.21-.3.21-.32.19-.31.17-.33.17-.32.15-.34.14-.34.13-.34.11-.35.1-.35.09-.35.07-.36.06-.36.05-.36.03-.36.02h-.36l-.37-.01-.36-.02-.37-.04-.36-.05-.36-.07-.36-.08-.36-.1-.36-.11-.36-.12-.35-.14-.35-.16-.34-.17-.34-.19-10.2-5.89-17.53 30.36 50.47 29.14 44.47-77.03-32.12-18.54-22.23 38.51zm-116.98 45.49 17.49-30.29-50.47-29.14-17.49 30.29zm60.29-27.32 17.53-30.36-50.47-29.14-17.53 30.36zm-127.06-11.23 17.49-30.29-50.47-29.14-17.49 30.29zm172.35-24.84 17.53-30.36-35.43-20.46-17.53 30.36zm-112.06-2.48 17.53-30.36-50.47-29.14-17.53 30.36zm-127.06-11.23 17.49-30.29-50.47-29.14-17.49 30.29zm314.48-5 17.49-30.3-50.46-29.13-17.49 30.29zm-127.1-11.16 17.53-30.36-50.46-29.14-17.53 30.36zm-127.09-11.16 17.53-30.36-50.47-29.14-17.53 30.36zm-127.06-11.23 17.49-30.29-50.47-29.14-17.49 30.29zm314.48-5 17.49-30.3-50.47-29.13-17.49 30.29zm-127.1-11.16 17.54-30.36-50.47-29.14-17.53 30.36zm-127.09-11.16 17.53-30.36-50.47-29.14-17.53 30.36zm-127.06-11.23 17.49-30.29-17.08-9.87-17.49 30.3zm314.48-5 17.49-30.3-50.47-29.13-17.49 30.29zm-127.1-11.16 17.53-30.36-50.46-29.14-17.54 30.36zm-127.09-11.16 17.53-30.36-50.47-29.14-17.53 30.36zm187.42-16.23 17.49-30.29-50.47-29.14-17.49 30.29zm-127.1-11.16 17.53-30.36-50.46-29.14-17.53 30.36zm60.33-27.39 17.49-30.3-50.47-29.13-17.49 30.29zm-127.1-11.16 17.54-30.36-17.09-9.87-17.53 30.37zm60.33-27.39 17.49-30.29-50.47-29.14-17.49 30.29z"/><path id="c" d="m516.88 169.53c-.02.12-.07.55-.02.14.01-.07.01-.11.02-.14z"/><path id="d" d="m531.94 163.46c-5.6-4.31-14.2-.91-15.08 6.21-.82 6.59 5.34 11.94 11.76 10.32 7.3-2.07 9.43-11.84 3.32-16.53z"/><path id="e" d="m516.88 169.53c0-.03 0-.03 0 0z"/></defs><use fill="#3ef8f4" xlink:href="#a"/><use fill="none" xlink:href="#a"/><use fill="#3ef8f4" xlink:href="#b"/><use fill="none" xlink:href="#b"/><use fill="#3ef8f4" xlink:href="#c"/><use fill="none" xlink:href="#c"/><use fill="#3ef8f4" xlink:href="#d"/><use fill="none" xlink:href="#d"/><use fill="#3ef8f4" xlink:href="#e"/><use fill="none" xlink:href="#e"/></svg>